<svg width="64" height="64" viewBox="0 0 64 64" fill="none" xmlns="http://www.w3.org/2000/svg">
<path fill-rule="evenodd" clip-rule="evenodd" d="M25.3334 33.4768C32.6789 33.4768 38.5671 27.5125 38.5671 20.0719C38.5671 12.6313 32.6789 6.66699 25.3334 6.66699C17.9879 6.66699 12.0997 12.6313 12.0997 20.0719C12.0997 27.5125 17.9879 33.4768 25.3334 33.4768ZM25.3334 40.0408C14.5446 40.0408 5.33337 41.7658 5.33337 48.6575C5.33337 55.5465 14.4886 57.3337 25.3334 57.3337C36.1194 57.3337 45.3334 55.6087 45.3334 48.717C45.3334 41.8253 36.1782 40.0408 25.3334 40.0408ZM53.0612 25.568H56.2695C57.59 25.568 58.6667 26.6598 58.6667 27.9989C58.6667 29.3381 57.59 30.4299 56.2695 30.4299H53.0612V33.5693C53.0612 34.9085 51.9873 36.0003 50.664 36.0003C49.3434 36.0003 48.2667 34.9085 48.2667 33.5693V30.4299H45.064C43.7407 30.4299 42.6667 29.3381 42.6667 27.9989C42.6667 26.6598 43.7407 25.568 45.064 25.568H48.2667V22.4313C48.2667 21.0922 49.3434 20.0003 50.664 20.0003C51.9873 20.0003 53.0612 21.0922 53.0612 22.4313V25.568Z" fill="#1373FB"/>
</svg>
