<svg width="167" height="48" viewBox="0 0 167 48" fill="none" xmlns="http://www.w3.org/2000/svg">
<path d="M166.077 42.4649C166.077 45.0229 163.962 47.0949 161.346 47.0949H6.50692C3.8919 47.0949 1.76929 45.0229 1.76929 42.4649V5.54228C1.76929 2.98551 3.8919 0.90625 6.50692 0.90625H161.344C163.962 0.90625 166.076 2.98551 166.076 5.54228L166.077 42.4649Z" fill="black"/>
<path d="M160.846 0.961502C163.695 0.961502 166.014 3.222 166.014 6V42C166.014 44.778 163.695 47.0385 160.846 47.0385H7.00004C4.15081 47.0385 1.83234 44.778 1.83234 42V6C1.83234 3.222 4.15081 0.961502 7.00004 0.961502H160.846ZM160.846 3.8147e-06H7.00004C3.61696 3.8147e-06 0.846191 2.7015 0.846191 6V42C0.846191 45.2985 3.61696 48 7.00004 48H160.846C164.229 48 167 45.2985 167 42V6C167 2.7015 164.229 3.8147e-06 160.846 3.8147e-06Z" fill="#A6A6A6"/>
<path d="M37.9268 23.7413C37.8911 19.8737 41.1748 17.9921 41.325 17.9045C39.4653 15.2609 36.5828 14.8997 35.5699 14.8709C33.149 14.6225 30.8007 16.2833 29.5674 16.2833C28.3096 16.2833 26.4105 14.8949 24.3637 14.9357C21.7299 14.9753 19.2659 16.4621 17.9145 18.7709C15.1256 23.4785 17.2056 30.3965 19.8776 34.2017C21.2142 36.0653 22.7761 38.1461 24.8204 38.0729C26.8204 37.9925 27.5674 36.8297 29.981 36.8297C32.3724 36.8297 33.0739 38.0729 35.1588 38.0261C37.3053 37.9925 38.6567 36.1541 39.9465 34.2737C41.4911 32.1377 42.1114 30.0341 42.1361 29.9261C42.0856 29.9093 37.9674 28.3769 37.9268 23.7413Z" fill="white"/>
<path d="M33.9884 12.3677C35.064 11.0561 35.8 9.27174 35.5957 7.46094C34.0388 7.52814 32.0917 8.51094 30.9705 9.79374C29.9785 10.9241 29.0924 12.7769 29.3213 14.5193C31.0702 14.6465 32.8659 13.6589 33.9884 12.3677Z" fill="white"/>
<path d="M61.2155 12.0104C61.2155 13.4228 60.781 14.486 59.9133 15.2C59.1096 15.8588 57.9675 16.1888 56.4881 16.1888C55.7546 16.1888 55.1269 16.1576 54.6013 16.0952V8.37804C55.2869 8.27004 56.0253 8.21484 56.8229 8.21484C58.2321 8.21484 59.2942 8.51364 60.0106 9.11124C60.813 9.78684 61.2155 10.7528 61.2155 12.0104ZM59.8555 12.0452C59.8555 11.1296 59.6069 10.4276 59.1096 9.93804C58.6124 9.44964 57.8862 9.20484 56.9299 9.20484C56.5238 9.20484 56.1779 9.23124 55.8912 9.28644V15.1532C56.0499 15.1772 56.3404 15.188 56.7626 15.188C57.7496 15.188 58.5115 14.9204 59.0481 14.3852C59.5847 13.85 59.8555 13.07 59.8555 12.0452Z" fill="white"/>
<path d="M68.4266 13.2445C68.4266 14.1145 68.1718 14.8273 67.6623 15.3865C67.1281 15.9613 66.4205 16.2481 65.5368 16.2481C64.6851 16.2481 64.0069 15.9733 63.5011 15.4213C62.9965 14.8705 62.7441 14.1757 62.7441 13.3381C62.7441 12.4621 63.0038 11.7433 63.5257 11.1853C64.0475 10.6273 64.7491 10.3477 65.6328 10.3477C66.4845 10.3477 67.1688 10.6225 67.6869 11.1733C68.1792 11.7085 68.4266 12.3997 68.4266 13.2445ZM67.0888 13.2853C67.0888 12.7633 66.9731 12.3157 66.7429 11.9425C66.4721 11.4913 66.0869 11.2657 65.586 11.2657C65.0678 11.2657 64.674 11.4913 64.4032 11.9425C64.1718 12.3157 64.0574 12.7705 64.0574 13.3081C64.0574 13.8301 64.1731 14.2777 64.4032 14.6509C64.6826 15.1021 65.0715 15.3277 65.5737 15.3277C66.066 15.3277 66.4525 15.0985 66.7306 14.6389C66.9694 14.2585 67.0888 13.8073 67.0888 13.2853Z" fill="white"/>
<path d="M78.0955 10.4629L76.2801 16.1197H75.0986L74.3466 13.6633C74.1558 13.0501 74.0007 12.4405 73.8801 11.8357H73.8567C73.7447 12.4573 73.5896 13.0657 73.3903 13.6633L72.5915 16.1197H71.3964L69.6893 10.4629H71.0149L71.6709 13.1521C71.8296 13.7881 71.9601 14.3941 72.0647 14.9677H72.0881C72.1841 14.4949 72.3429 13.8925 72.5669 13.1641L73.3903 10.4641H74.4413L75.2303 13.1065C75.421 13.7509 75.5761 14.3713 75.6955 14.9689H75.7312C75.8186 14.3869 75.9503 13.7665 76.125 13.1065L76.829 10.4641H78.0955V10.4629Z" fill="white"/>
<path d="M84.7822 16.1194H83.4923V12.8794C83.4923 11.881 83.1034 11.3818 82.3231 11.3818C81.9403 11.3818 81.6314 11.5186 81.3914 11.7934C81.1539 12.0682 81.0333 12.3922 81.0333 12.763V16.1182H79.7434V12.079C79.7434 11.5822 79.7274 11.0434 79.6967 10.4602H80.8302L80.8905 11.3446H80.9262C81.0763 11.0698 81.3003 10.843 81.5945 10.6618C81.944 10.4506 82.3354 10.3438 82.7637 10.3438C83.3053 10.3438 83.7557 10.5142 84.1139 10.8562C84.5594 11.275 84.7822 11.9002 84.7822 12.7306V16.1194Z" fill="white"/>
<path d="M88.3391 16.1196H87.0505V7.86719H88.3391V16.1196Z" fill="white"/>
<path d="M95.9331 13.2445C95.9331 14.1145 95.6783 14.8273 95.1688 15.3865C94.6346 15.9613 93.9257 16.2481 93.0432 16.2481C92.1903 16.2481 91.5121 15.9733 91.0075 15.4213C90.5029 14.8705 90.2506 14.1757 90.2506 13.3381C90.2506 12.4621 90.5103 11.7433 91.0322 11.1853C91.554 10.6273 92.2555 10.3477 93.138 10.3477C93.9909 10.3477 94.674 10.6225 95.1934 11.1733C95.6857 11.7085 95.9331 12.3997 95.9331 13.2445ZM94.594 13.2853C94.594 12.7633 94.4783 12.3157 94.2481 11.9425C93.9786 11.4913 93.5921 11.2657 93.0925 11.2657C92.5731 11.2657 92.1792 11.4913 91.9097 11.9425C91.6783 12.3157 91.5638 12.7705 91.5638 13.3081C91.5638 13.8301 91.6795 14.2777 91.9097 14.6509C92.1891 15.1021 92.578 15.3277 93.0802 15.3277C93.5725 15.3277 93.9577 15.0985 94.2358 14.6389C94.4758 14.2585 94.594 13.8073 94.594 13.2853Z" fill="white"/>
<path d="M102.175 16.1197H101.017L100.921 15.4681H100.886C100.489 15.9877 99.9244 16.2481 99.1908 16.2481C98.6431 16.2481 98.2 16.0765 97.8665 15.7357C97.5637 15.4261 97.4124 15.0409 97.4124 14.5837C97.4124 13.8925 97.7077 13.3657 98.3022 13.0009C98.8954 12.6361 99.7299 12.4573 100.804 12.4657V12.3601C100.804 11.6149 100.403 11.2429 99.5994 11.2429C99.0271 11.2429 98.5225 11.3833 98.0868 11.6617L97.8247 10.8361C98.3637 10.5109 99.0296 10.3477 99.8148 10.3477C101.331 10.3477 102.092 11.1277 102.092 12.6877V14.7709C102.092 15.3361 102.12 15.7861 102.175 16.1197ZM100.836 14.1757V13.3033C99.4136 13.2793 98.7022 13.6597 98.7022 14.4433C98.7022 14.7385 98.7834 14.9593 98.9496 15.1069C99.1157 15.2545 99.3274 15.3277 99.5797 15.3277C99.8628 15.3277 100.127 15.2401 100.369 15.0661C100.611 14.8909 100.76 14.6689 100.815 14.3965C100.829 14.3353 100.836 14.2609 100.836 14.1757Z" fill="white"/>
<path d="M109.505 16.1196H108.36L108.3 15.2112H108.264C107.899 15.9024 107.276 16.248 106.401 16.248C105.702 16.248 105.12 15.9804 104.658 15.4452C104.196 14.91 103.966 14.2152 103.966 13.362C103.966 12.4464 104.216 11.7048 104.718 11.1384C105.204 10.6104 105.8 10.3464 106.509 10.3464C107.288 10.3464 107.833 10.602 108.144 11.1144H108.168V7.86719H109.459V14.5956C109.459 15.1464 109.474 15.654 109.505 16.1196ZM108.168 13.734V12.7908C108.168 12.6276 108.156 12.4956 108.132 12.3948C108.06 12.0924 107.904 11.838 107.666 11.6328C107.426 11.4276 107.137 11.3244 106.803 11.3244C106.322 11.3244 105.945 11.5104 105.668 11.8836C105.394 12.2568 105.255 12.7332 105.255 13.3152C105.255 13.8744 105.387 14.328 105.651 14.6772C105.931 15.0492 106.307 15.2352 106.779 15.2352C107.202 15.2352 107.54 15.0804 107.798 14.7696C108.046 14.4828 108.168 14.1372 108.168 13.734Z" fill="white"/>
<path d="M120.536 13.2445C120.536 14.1145 120.281 14.8273 119.772 15.3865C119.238 15.9613 118.531 16.2481 117.646 16.2481C116.796 16.2481 116.118 15.9733 115.611 15.4213C115.106 14.8705 114.854 14.1757 114.854 13.3381C114.854 12.4621 115.113 11.7433 115.635 11.1853C116.157 10.6273 116.859 10.3477 117.743 10.3477C118.594 10.3477 119.279 10.6225 119.796 11.1733C120.289 11.7085 120.536 12.3997 120.536 13.2445ZM119.199 13.2853C119.199 12.7633 119.084 12.3157 118.854 11.9425C118.582 11.4913 118.198 11.2657 117.695 11.2657C117.179 11.2657 116.785 11.4913 116.513 11.9425C116.281 12.3157 116.167 12.7705 116.167 13.3081C116.167 13.8301 116.283 14.2777 116.513 14.6509C116.792 15.1021 117.181 15.3277 117.683 15.3277C118.175 15.3277 118.563 15.0985 118.841 14.6389C119.079 14.2585 119.199 13.8073 119.199 13.2853Z" fill="white"/>
<path d="M127.472 16.1194H126.183V12.8794C126.183 11.881 125.794 11.3818 125.012 11.3818C124.63 11.3818 124.321 11.5186 124.082 11.7934C123.843 12.0682 123.724 12.3922 123.724 12.763V16.1182H122.433V12.079C122.433 11.5822 122.418 11.0434 122.387 10.4602H123.52L123.58 11.3446H123.616C123.767 11.0698 123.991 10.843 124.284 10.6618C124.635 10.4506 125.025 10.3438 125.454 10.3438C125.995 10.3438 126.445 10.5142 126.803 10.8562C127.25 11.275 127.472 11.9002 127.472 12.7306V16.1194Z" fill="white"/>
<path d="M136.152 11.4055H134.732V14.1535C134.732 14.8519 134.984 15.2011 135.484 15.2011C135.715 15.2011 135.907 15.1819 136.059 15.1423L136.092 16.0963C135.837 16.1899 135.502 16.2367 135.09 16.2367C134.58 16.2367 134.184 16.0855 133.897 15.7831C133.609 15.4807 133.467 14.9719 133.467 14.2579V11.4055H132.619V10.4635H133.467V9.42669L134.731 9.05469V10.4623H136.151V11.4055H136.152Z" fill="white"/>
<path d="M142.98 16.1196H141.689V12.9036C141.689 11.8896 141.3 11.382 140.521 11.382C139.923 11.382 139.515 11.676 139.291 12.264C139.252 12.3876 139.23 12.5388 139.23 12.7164V16.1184H137.942V7.86719H139.23V11.2764H139.255C139.661 10.656 140.243 10.3464 140.998 10.3464C141.532 10.3464 141.974 10.5168 142.324 10.8588C142.761 11.2848 142.98 11.9184 142.98 12.756V16.1196Z" fill="white"/>
<path d="M150.024 13.0227C150.024 13.2483 150.007 13.4379 149.976 13.5927H146.108C146.125 14.1519 146.31 14.5779 146.668 14.8731C146.995 15.1371 147.417 15.2691 147.934 15.2691C148.507 15.2691 149.028 15.1803 149.499 15.0015L149.7 15.8751C149.15 16.1079 148.503 16.2243 147.753 16.2243C146.855 16.2243 146.147 15.9663 145.635 15.4503C145.121 14.9343 144.866 14.2419 144.866 13.3731C144.866 12.5199 145.104 11.8095 145.582 11.2431C146.082 10.6383 146.758 10.3359 147.611 10.3359C148.445 10.3359 149.079 10.6383 149.507 11.2431C149.853 11.7231 150.024 12.3171 150.024 13.0227ZM148.793 12.6975C148.803 12.3243 148.718 12.0027 148.544 11.7315C148.32 11.3823 147.979 11.2071 147.517 11.2071C147.096 11.2071 146.753 11.3775 146.491 11.7195C146.276 11.9919 146.15 12.3171 146.108 12.6975H148.793Z" fill="white"/>
<path d="M66.8708 37.8055H64.0757L62.5446 33.1147H57.2228L55.7643 37.8055H53.0431L58.3157 21.8359H61.5723L66.8708 37.8055ZM62.0831 31.1467L60.6985 26.9767C60.552 26.5507 60.2776 25.5475 59.8726 23.9683H59.8234C59.6622 24.6475 59.4025 25.6507 59.0455 26.9767L57.6856 31.1467H62.0831Z" fill="white"/>
<path d="M80.4302 31.9051C80.4302 33.8635 79.8874 35.4115 78.8019 36.5479C77.8296 37.5595 76.6222 38.0647 75.1809 38.0647C73.6253 38.0647 72.5077 37.5199 71.8271 36.4303H71.7779V42.4963H69.1539V30.0799C69.1539 28.8487 69.1206 27.5851 69.0566 26.2891H71.3643L71.5108 28.1143H71.56C72.4351 26.7391 73.7631 26.0527 75.5453 26.0527C76.9385 26.0527 78.1016 26.5891 79.032 27.6631C79.965 28.7383 80.4302 30.1519 80.4302 31.9051ZM77.757 31.9987C77.757 30.8779 77.4985 29.9539 76.9791 29.2267C76.4117 28.4683 75.6499 28.0891 74.6948 28.0891C74.0474 28.0891 73.4591 28.3003 72.9336 28.7167C72.4068 29.1367 72.0622 29.6851 71.9009 30.3643C71.8197 30.6811 71.7791 30.9403 71.7791 31.1443V33.0643C71.7791 33.9019 72.0425 34.6087 72.5693 35.1859C73.096 35.7631 73.7803 36.0511 74.6222 36.0511C75.6105 36.0511 76.3797 35.6791 76.9299 34.9375C77.4813 34.1947 77.757 33.2155 77.757 31.9987Z" fill="white"/>
<path d="M94.0142 31.9051C94.0142 33.8635 93.4714 35.4115 92.3846 36.5479C91.4135 37.5595 90.2062 38.0647 88.7649 38.0647C87.2092 38.0647 86.0917 37.5199 85.4123 36.4303H85.3631V42.4963H82.7391V30.0799C82.7391 28.8487 82.7058 27.5851 82.6418 26.2891H84.9495L85.096 28.1143H85.1452C86.0191 26.7391 87.3471 26.0527 89.1305 26.0527C90.5225 26.0527 91.6855 26.5891 92.6185 27.6631C93.5477 28.7383 94.0142 30.1519 94.0142 31.9051ZM91.3409 31.9987C91.3409 30.8779 91.0812 29.9539 90.5618 29.2267C89.9945 28.4683 89.2351 28.0891 88.2788 28.0891C87.6302 28.0891 87.0431 28.3003 86.5163 28.7167C85.9895 29.1367 85.6462 29.6851 85.4849 30.3643C85.4049 30.6811 85.3631 30.9403 85.3631 31.1443V33.0643C85.3631 33.9019 85.6265 34.6087 86.1508 35.1859C86.6775 35.7619 87.3619 36.0511 88.2062 36.0511C89.1945 36.0511 89.9637 35.6791 90.5139 34.9375C91.0652 34.1947 91.3409 33.2155 91.3409 31.9987Z" fill="white"/>
<path d="M109.202 33.3268C109.202 34.6852 108.718 35.7904 107.747 36.6436C106.68 37.576 105.195 38.0416 103.286 38.0416C101.523 38.0416 100.11 37.7104 99.0406 37.0468L99.6487 34.9144C100.801 35.5936 102.065 35.9344 103.442 35.9344C104.43 35.9344 105.199 35.716 105.752 35.2816C106.302 34.8472 106.577 34.264 106.577 33.5368C106.577 32.8888 106.35 32.3428 105.896 31.9C105.444 31.4572 104.69 31.0456 103.636 30.6652C100.769 29.6224 99.336 28.0948 99.336 26.086C99.336 24.7732 99.8382 23.6968 100.844 22.8592C101.846 22.0204 103.182 21.6016 104.854 21.6016C106.344 21.6016 107.582 21.8548 108.571 22.36L107.914 24.4456C106.991 23.956 105.948 23.7112 104.78 23.7112C103.857 23.7112 103.135 23.9332 102.619 24.3748C102.182 24.7696 101.962 25.2508 101.962 25.8208C101.962 26.452 102.212 26.974 102.714 27.3844C103.151 27.7636 103.945 28.174 105.097 28.6168C106.507 29.17 107.542 29.8168 108.207 30.5584C108.871 31.2976 109.202 32.2228 109.202 33.3268Z" fill="white"/>
<path d="M117.878 28.2091H114.985V33.7999C114.985 35.2219 115.495 35.9323 116.516 35.9323C116.985 35.9323 117.374 35.8927 117.682 35.8135L117.754 37.7563C117.238 37.9447 116.557 38.0395 115.714 38.0395C114.678 38.0395 113.868 37.7311 113.283 37.1155C112.701 36.4987 112.408 35.4643 112.408 34.0111V28.2067H110.685V26.2867H112.408V24.1783L114.985 23.4199V26.2867H117.878V28.2091Z" fill="white"/>
<path d="M130.927 31.9527C130.927 33.7227 130.408 35.1759 129.372 36.3123C128.285 37.4823 126.842 38.0655 125.044 38.0655C123.311 38.0655 121.932 37.5051 120.903 36.3843C119.874 35.2635 119.359 33.8487 119.359 32.1435C119.359 30.3591 119.889 28.8975 120.951 27.7611C122.01 26.6235 123.441 26.0547 125.239 26.0547C126.972 26.0547 128.366 26.6151 129.418 27.7371C130.425 28.8255 130.927 30.2307 130.927 31.9527ZM128.205 32.0355C128.205 30.9735 127.972 30.0627 127.501 29.3031C126.951 28.3839 126.164 27.9255 125.145 27.9255C124.09 27.9255 123.289 28.3851 122.739 29.3031C122.268 30.0639 122.035 30.9891 122.035 32.0835C122.035 33.1455 122.268 34.0563 122.739 34.8147C123.306 35.7339 124.099 36.1923 125.122 36.1923C126.124 36.1923 126.91 35.7243 127.478 34.7907C127.961 34.0167 128.205 33.0963 128.205 32.0355Z" fill="white"/>
<path d="M139.457 28.5391C139.197 28.4923 138.92 28.4683 138.63 28.4683C137.706 28.4683 136.993 28.8079 136.49 29.4883C136.054 30.0883 135.834 30.8467 135.834 31.7623V37.8043H133.212L133.236 29.9155C133.236 28.5883 133.203 27.3799 133.138 26.2903H135.423L135.519 28.4935H135.592C135.869 27.7363 136.306 27.1267 136.904 26.6695C137.489 26.2579 138.12 26.0527 138.801 26.0527C139.043 26.0527 139.262 26.0695 139.457 26.0995V28.5391Z" fill="white"/>
<path d="M151.192 31.502C151.192 31.9604 151.161 32.3468 151.096 32.6624H143.224C143.255 33.8 143.635 34.67 144.366 35.27C145.03 35.8064 145.887 36.0752 146.941 36.0752C148.107 36.0752 149.17 35.894 150.126 35.5304L150.537 37.3064C149.42 37.7816 148.1 38.018 146.578 38.018C144.747 38.018 143.309 37.4924 142.263 36.4424C141.219 35.3924 140.696 33.9824 140.696 32.2136C140.696 30.4772 141.182 29.0312 142.156 27.878C143.175 26.6468 144.552 26.0312 146.285 26.0312C147.987 26.0312 149.276 26.6468 150.151 27.878C150.844 28.856 151.192 30.0656 151.192 31.502ZM148.69 30.8384C148.707 30.08 148.536 29.4248 148.18 28.8716C147.726 28.16 147.028 27.8048 146.089 27.8048C145.231 27.8048 144.534 28.1516 144.001 28.8476C143.564 29.4008 143.304 30.0644 143.224 30.8372H148.69V30.8384Z" fill="white"/>
</svg>
