<svg width="27" height="32" viewBox="0 0 27 32" fill="none" xmlns="http://www.w3.org/2000/svg">
<path d="M21.9268 16.7408C21.8911 12.8732 25.1748 10.9916 25.3249 10.904C23.4652 8.26039 20.5828 7.89919 19.5698 7.87039C17.1489 7.62199 14.8006 9.28279 13.5674 9.28279C12.3095 9.28279 10.4105 7.89439 8.36368 7.93519C5.72984 7.97479 3.26584 9.46159 1.91445 11.7704C-0.874471 16.478 1.20553 23.396 3.87753 27.2012C5.21414 29.0648 6.77599 31.1456 8.8203 31.0724C10.8203 30.992 11.5674 29.8292 13.9809 29.8292C16.3723 29.8292 17.0738 31.0724 19.1588 31.0256C21.3052 30.992 22.6566 29.1536 23.9464 27.2732C25.4911 25.1372 26.1114 23.0336 26.136 22.9256C26.0855 22.9088 21.9674 21.3764 21.9268 16.7408Z" fill="white"/>
<path d="M17.9883 5.36719C19.064 4.05559 19.8 2.27119 19.5957 0.460388C18.0388 0.527588 16.0917 1.51039 14.9705 2.79319C13.9785 3.92359 13.0923 5.77639 13.3212 7.51879C15.0701 7.64599 16.8658 6.65839 17.9883 5.36719Z" fill="white"/>
</svg>
