<svg width="54" height="32" viewBox="0 0 54 32" fill="none" xmlns="http://www.w3.org/2000/svg">
<path d="M15.3237 11.621C15.3237 12.2809 15.395 12.8138 15.5199 13.204C15.6626 13.5964 15.841 14.0245 16.0907 14.4883C16.1799 14.6288 16.2155 14.7715 16.2155 14.8963C16.2155 15.0747 16.1085 15.2531 15.8766 15.4314L14.7551 16.1784C14.6196 16.2761 14.4583 16.3319 14.2914 16.3389C14.113 16.3389 13.9346 16.2497 13.7585 16.0892C13.5189 15.8316 13.3047 15.5516 13.1186 15.2531C12.9192 14.9111 12.7348 14.5607 12.5656 14.2029C11.1788 15.8395 9.43294 16.6577 7.3326 16.6577C5.83873 16.6577 4.64587 16.2319 3.77407 15.3779C2.90228 14.5217 2.45858 13.3846 2.45858 11.9599C2.45858 10.4482 2.99146 9.21739 4.07731 8.29431C5.16315 7.36901 6.6035 6.90524 8.43628 6.90524C9.04275 6.90524 9.66482 6.95875 10.3226 7.04794C10.9825 7.13712 11.6604 7.27982 12.3694 7.44036V6.14047C12.3694 4.78707 12.0862 3.84392 11.5333 3.2932C10.9647 2.74025 10.0037 2.47492 8.63472 2.47492C8.01042 2.47492 7.36828 2.54404 6.71053 2.70457C6.05278 2.86511 5.41064 3.06132 4.78857 3.31104C4.58574 3.40185 4.37719 3.47931 4.16426 3.54292C4.07256 3.57248 3.97734 3.58972 3.8811 3.5942C3.63138 3.5942 3.50652 3.41583 3.50652 3.04348V2.17168C3.50652 1.88629 3.54219 1.67224 3.63138 1.54738C3.76606 1.3855 3.93723 1.25789 4.13082 1.17503C4.75289 0.853958 5.49983 0.5864 6.37162 0.372353C7.27913 0.140021 8.21303 0.026844 9.14977 0.0356751C11.2679 0.0356751 12.8153 0.51728 13.812 1.47826C14.7908 2.43701 15.288 3.89744 15.288 5.85507V11.621H15.3237ZM8.0996 14.3278C8.686 14.3278 9.29024 14.2207 9.93238 14.0067C10.5723 13.7926 11.1431 13.4025 11.6225 12.8696C11.9079 12.5307 12.1219 12.1561 12.2289 11.728C12.3337 11.3021 12.4073 10.7848 12.4073 10.1806V9.43367C11.8671 9.30199 11.32 9.20075 10.7685 9.13043C10.2139 9.05997 9.65536 9.02422 9.09626 9.02341C7.90339 9.02341 7.0316 9.25529 6.44297 9.7369C5.85657 10.2163 5.5734 10.8919 5.5734 11.7815C5.5734 12.6176 5.78522 13.2419 6.23115 13.6678C6.65702 14.1137 7.27909 14.3278 8.0996 14.3278ZM22.3917 16.2497C22.0706 16.2497 21.8566 16.1962 21.7139 16.0713C21.5712 15.9643 21.4463 15.7146 21.3393 15.3779L17.1587 1.61873C17.0774 1.38802 17.0235 1.14855 16.9982 0.90524C16.9982 0.619844 17.1409 0.45931 17.424 0.45931H19.1698C19.5065 0.45931 19.7384 0.515051 19.861 0.637682C20.006 0.744705 20.113 0.994426 20.2178 1.33333L23.21 13.1148L25.9859 1.33333C26.0751 0.976589 26.1821 0.744705 26.3226 0.637682C26.5365 0.506495 26.7856 0.444226 27.0361 0.45931H28.4586C28.7975 0.45931 29.0294 0.515051 29.1721 0.637682C29.3125 0.744705 29.4396 0.994426 29.5087 1.33333L32.3203 13.2575L35.3995 1.33333C35.5065 0.976589 35.6314 0.744705 35.7562 0.637682C35.9628 0.506556 36.2055 0.44412 36.4497 0.45931H38.1063C38.3895 0.45931 38.5522 0.604237 38.5522 0.90524C38.5522 0.994426 38.5322 1.08361 38.5143 1.19064C38.4864 1.34278 38.4446 1.49204 38.3895 1.63657L34.1018 15.3935C33.9948 15.7503 33.8699 15.9799 33.7272 16.087C33.5264 16.2158 33.29 16.2782 33.0517 16.2653H31.5199C31.1832 16.2653 30.9513 16.2118 30.8064 16.087C30.6659 15.9621 30.5411 15.7302 30.472 15.3735L27.7116 3.89521L24.9692 15.3556C24.88 15.7124 24.7752 15.9443 24.6347 16.0691C24.4898 16.194 24.2401 16.2475 23.9212 16.2475L22.3917 16.2497ZM45.259 16.7291C44.3337 16.7291 43.4084 16.6221 42.5188 16.4103C41.6291 16.1962 40.9357 15.9643 40.472 15.6968C40.1866 15.5385 39.9926 15.3601 39.9212 15.1996C39.8517 15.0422 39.8153 14.8722 39.8142 14.7001V13.7926C39.8142 13.4203 39.9569 13.2419 40.2222 13.2419C40.3293 13.2419 40.4363 13.2598 40.5433 13.2954C40.6503 13.3311 40.8109 13.4025 40.9892 13.4738C41.5935 13.7414 42.2512 13.9532 42.9469 14.0959C43.6581 14.2386 44.3516 14.3099 45.065 14.3099C46.1843 14.3099 47.0584 14.1137 47.6626 13.7213C47.9522 13.5463 48.1904 13.2978 48.3529 13.0009C48.5155 12.7041 48.5965 12.3695 48.5879 12.0312C48.5944 11.8021 48.5554 11.5739 48.4731 11.36C48.3908 11.146 48.2669 10.9505 48.1085 10.7848C47.7874 10.4482 47.181 10.1449 46.3092 9.85953L43.7295 9.05686C42.4296 8.64883 41.4686 8.04459 40.8822 7.24415C40.3083 6.50542 39.9947 5.59766 39.9903 4.66221C39.9903 3.91527 40.1531 3.25752 40.472 2.68673C40.793 2.11817 41.2189 1.61873 41.754 1.22854C42.2891 0.818283 42.8911 0.51505 43.6046 0.303233C44.3181 0.0891865 45.065 0 45.8476 0C46.2378 0 46.6481 0.0178374 47.0405 0.0713491C47.4485 0.124861 47.8209 0.196209 48.1955 0.267558C48.5522 0.356744 48.8911 0.445931 49.21 0.550725C49.531 0.657749 49.7808 0.764772 49.9591 0.871795C50.1693 0.977572 50.3523 1.13013 50.4943 1.31773C50.6092 1.49087 50.6647 1.69667 50.6526 1.90412V2.74025C50.6526 3.11483 50.5099 3.31104 50.2423 3.31104C50.0054 3.28388 49.776 3.21119 49.5667 3.09699C48.4915 2.62201 47.3262 2.38545 46.1509 2.40357C45.1364 2.40357 44.3337 2.56187 43.783 2.90078C43.23 3.23969 42.9469 3.75474 42.9469 4.48384C42.9469 4.98328 43.1252 5.41137 43.482 5.74805C43.8365 6.08696 44.4942 6.42586 45.4374 6.7291L47.9658 7.52731C49.2456 7.93757 50.1732 8.50836 50.7239 9.23746C51.2746 9.96655 51.5422 10.8027 51.5422 11.728C51.5422 12.4928 51.3816 13.1884 51.0806 13.7926C50.7596 14.3991 50.3315 14.932 49.7808 15.3601C49.2278 15.806 48.5701 16.1249 47.8053 16.3567C47.0026 16.6042 46.1687 16.7291 45.259 16.7291ZM48.6236 25.3802C42.7685 29.7057 34.2601 32 26.9469 32C16.6949 32 7.45969 28.2096 0.480874 21.9086C-0.0698507 21.4114 0.427362 20.7336 1.08734 21.126C8.63249 25.5028 17.9413 28.1561 27.5689 28.1561C34.0662 28.1561 41.201 26.8027 47.7696 24.0268C48.7484 23.5808 49.5845 24.6667 48.6236 25.3802ZM51.0628 22.602C50.3136 21.6433 46.113 22.1405 44.2089 22.3724C43.6403 22.4437 43.5511 21.9443 44.0684 21.5697C47.4129 19.2218 52.9134 19.8974 53.5533 20.68C54.1932 21.4827 53.375 26.9811 50.2423 29.6143C49.7629 30.0245 49.2992 29.8105 49.5132 29.2776C50.2267 27.5162 51.8097 23.5474 51.0628 22.602Z" fill="#505050"/>
</svg>
