<svg width="25" height="24" viewBox="0 0 25 24" fill="none" xmlns="http://www.w3.org/2000/svg">
<rect x="0.666626" width="24" height="24" rx="12" fill="#1373FB"/>
<path d="M17.14 8.80657C17.078 8.74409 17.0043 8.69449 16.923 8.66065C16.8418 8.6268 16.7546 8.60938 16.6666 8.60938C16.5786 8.60938 16.4915 8.6268 16.4102 8.66065C16.329 8.69449 16.2553 8.74409 16.1933 8.80657L11.2266 13.7799L9.13997 11.6866C9.07562 11.6244 8.99966 11.5755 8.91642 11.5427C8.83318 11.5099 8.7443 11.4938 8.65485 11.4954C8.56539 11.4969 8.47712 11.5161 8.39507 11.5518C8.31302 11.5874 8.23879 11.6389 8.17663 11.7032C8.11447 11.7676 8.0656 11.8435 8.0328 11.9268C7.99999 12.01 7.98391 12.0989 7.98545 12.1884C7.987 12.2778 8.00615 12.3661 8.04182 12.4481C8.07748 12.5302 8.12895 12.6044 8.1933 12.6666L10.7533 15.2266C10.8153 15.2891 10.889 15.3387 10.9702 15.3725C11.0515 15.4063 11.1386 15.4238 11.2266 15.4238C11.3146 15.4238 11.4018 15.4063 11.483 15.3725C11.5643 15.3387 11.638 15.2891 11.7 15.2266L17.14 9.78657C17.2076 9.72415 17.2616 9.64838 17.2986 9.56404C17.3355 9.47971 17.3546 9.38864 17.3546 9.29657C17.3546 9.20451 17.3355 9.11344 17.2986 9.0291C17.2616 8.94477 17.2076 8.869 17.14 8.80657Z" fill="white"/>
</svg>
