<svg width="34" height="34" viewBox="0 0 34 34" fill="none" xmlns="http://www.w3.org/2000/svg">
<path fill-rule="evenodd" clip-rule="evenodd" d="M20.5355 15.7225H25.1486C25.848 15.7225 26.3976 15.1442 26.3976 14.4469C26.3976 13.7325 25.848 13.1712 25.1486 13.1712H20.5355C19.836 13.1712 19.2865 13.7325 19.2865 14.4469C19.2865 15.1442 19.836 15.7225 20.5355 15.7225ZM30.6276 6.87981C31.6435 6.87981 32.3097 7.23698 32.9758 8.01937C33.6419 8.80176 33.7585 9.92432 33.6086 10.9431L32.0265 22.1007C31.7268 24.2455 29.9282 25.8256 27.8132 25.8256H9.64398C7.42904 25.8256 5.59714 24.0924 5.41395 21.8473L3.88181 3.30632L1.3671 2.8641C0.700953 2.74504 0.23465 2.08171 0.351226 1.40137C0.467801 0.705726 1.1173 0.244796 1.8001 0.348548L5.772 0.959153C6.33823 1.0629 6.75457 1.53744 6.80453 2.11573L7.12095 5.92563C7.17091 6.4716 7.60391 6.87981 8.13682 6.87981H30.6276ZM9.37719 28.5137C7.97828 28.5137 6.84583 29.6703 6.84583 31.099C6.84583 32.5107 7.97828 33.6673 9.37719 33.6673C10.7594 33.6673 11.8919 32.5107 11.8919 31.099C11.8919 29.6703 10.7594 28.5137 9.37719 28.5137ZM28.1126 28.5137C26.7137 28.5137 25.5812 29.6703 25.5812 31.099C25.5812 32.5107 26.7137 33.6673 28.1126 33.6673C29.4948 33.6673 30.6273 32.5107 30.6273 31.099C30.6273 29.6703 29.4948 28.5137 28.1126 28.5137Z" fill="#FA1363"/>
</svg>
