<svg width="20" height="19" viewBox="0 0 20 19" fill="none" xmlns="http://www.w3.org/2000/svg">
<path fill-rule="evenodd" clip-rule="evenodd" d="M4.25293 5.81299L4.82381 12.603C4.86547 13.1256 5.29244 13.5175 5.81409 13.5175H5.81788H16.1477H16.1496C16.6428 13.5175 17.0641 13.1502 17.1342 12.6626L18.0336 6.45298C18.0544 6.30529 18.0175 6.1576 17.9275 6.03831C17.8385 5.91808 17.7079 5.84044 17.5602 5.81962C17.3623 5.82719 9.15133 5.81583 4.25293 5.81299ZM5.81382 14.9373C4.56697 14.9373 3.51136 13.964 3.41006 12.7191L2.54286 2.40535L1.11613 2.1592C0.728916 2.09103 0.470458 1.72465 0.536729 1.33744C0.604894 0.950222 0.978853 0.698391 1.35755 0.758982L3.32675 1.09981C3.64391 1.15566 3.88532 1.41885 3.91278 1.74074L4.13526 4.39254C17.6508 4.39822 17.6944 4.40485 17.7597 4.41242C18.287 4.48911 18.7509 4.76461 19.0671 5.18874C19.3833 5.61193 19.5159 6.13358 19.4401 6.65618L18.5417 12.8649C18.3722 14.0464 17.346 14.9373 16.1531 14.9373H16.1484H5.82139H5.81382Z" fill="#202020"/>
<path fill-rule="evenodd" clip-rule="evenodd" d="M14.6279 9.31219H12.0035C11.6106 9.31219 11.2935 8.99409 11.2935 8.60214C11.2935 8.21019 11.6106 7.89209 12.0035 7.89209H14.6279C15.0198 7.89209 15.3379 8.21019 15.3379 8.60214C15.3379 8.99409 15.0198 9.31219 14.6279 9.31219Z" fill="#202020"/>
<path fill-rule="evenodd" clip-rule="evenodd" d="M5.41099 17.5093C5.69596 17.5093 5.92601 17.7393 5.92601 18.0243C5.92601 18.3093 5.69596 18.5403 5.41099 18.5403C5.12508 18.5403 4.89502 18.3093 4.89502 18.0243C4.89502 17.7393 5.12508 17.5093 5.41099 17.5093Z" fill="#202020"/>
</svg>
