<svg width="24" height="24" viewBox="0 0 24 24" fill="none" xmlns="http://www.w3.org/2000/svg">
<path fill-rule="evenodd" clip-rule="evenodd" d="M6.25293 7.81299L6.82381 14.603C6.86547 15.1256 7.29244 15.5175 7.81409 15.5175H7.81788H18.1477H18.1496C18.6428 15.5175 19.0641 15.1502 19.1342 14.6626L20.0336 8.45298C20.0544 8.30529 20.0175 8.1576 19.9275 8.03831C19.8385 7.91808 19.7079 7.84044 19.5602 7.81962C19.3623 7.82719 11.1513 7.81583 6.25293 7.81299ZM7.81382 16.9373C6.56697 16.9373 5.51136 15.964 5.41006 14.7191L4.54286 4.40535L3.11613 4.1592C2.72892 4.09103 2.47046 3.72465 2.53673 3.33744C2.60489 2.95022 2.97885 2.69839 3.35755 2.75898L5.32675 3.09981C5.64391 3.15566 5.88532 3.41885 5.91278 3.74074L6.13526 6.39254C19.6508 6.39822 19.6944 6.40485 19.7597 6.41242C20.287 6.48911 20.7509 6.76461 21.0671 7.18874C21.3833 7.61193 21.5159 8.13358 21.4401 8.65618L20.5417 14.8649C20.3722 16.0464 19.346 16.9373 18.1531 16.9373H18.1484H7.82139H7.81382Z" fill="#202020"/>
<path fill-rule="evenodd" clip-rule="evenodd" d="M16.6276 11.3122H14.0033C13.6104 11.3122 13.2932 10.9941 13.2932 10.6021C13.2932 10.2102 13.6104 9.89209 14.0033 9.89209H16.6276C17.0196 9.89209 17.3377 10.2102 17.3377 10.6021C17.3377 10.9941 17.0196 11.3122 16.6276 11.3122Z" fill="#202020"/>
<path fill-rule="evenodd" clip-rule="evenodd" d="M7.41074 19.5093C7.69571 19.5093 7.92577 19.7393 7.92577 20.0243C7.92577 20.3093 7.69571 20.5403 7.41074 20.5403C7.12483 20.5403 6.89478 20.3093 6.89478 20.0243C6.89478 19.7393 7.12483 19.5093 7.41074 19.5093Z" fill="#202020"/>
<mask id="mask0_361_7075" style="mask-type:luminance" maskUnits="userSpaceOnUse" x="6" y="19" width="2" height="2">
<path fill-rule="evenodd" clip-rule="evenodd" d="M6.88696 20.0238C6.88696 20.3097 7.11702 20.5407 7.40388 20.5407C7.68885 20.5407 7.9189 20.3097 7.9189 20.0238C7.9189 19.7388 7.68885 19.5088 7.40388 19.5088C7.11702 19.5088 6.88696 19.7388 6.88696 20.0238Z" fill="white"/>
</mask>
<g mask="url(#mask0_361_7075)">
<path fill-rule="evenodd" clip-rule="evenodd" d="M2.15259 25.2732H12.6509V14.7749H2.15259V25.2732Z" fill="#202020"/>
</g>
<path fill-rule="evenodd" clip-rule="evenodd" d="M7.40551 19.8294C7.29853 19.8294 7.21143 19.9165 7.21143 20.0235C7.21143 20.2384 7.60054 20.2384 7.60054 20.0235C7.60054 19.9165 7.51249 19.8294 7.40551 19.8294ZM7.39988 21.2494C6.72391 21.2494 6.1748 20.6994 6.1748 20.0234C6.1748 19.3474 6.72391 18.7983 7.39988 18.7983C8.07584 18.7983 8.6259 19.3474 8.6259 20.0234C8.6259 20.6994 8.07584 21.2494 7.39988 21.2494Z" fill="#202020"/>
<path fill-rule="evenodd" clip-rule="evenodd" d="M18.0826 19.5083C18.3676 19.5083 18.5986 19.7384 18.5986 20.0233C18.5986 20.3083 18.3676 20.5393 18.0826 20.5393C17.7967 20.5393 17.5667 20.3083 17.5667 20.0233C17.5667 19.7384 17.7967 19.5083 18.0826 19.5083Z" fill="#202020"/>
<mask id="mask1_361_7075" style="mask-type:luminance" maskUnits="userSpaceOnUse" x="17" y="19" width="2" height="2">
<path fill-rule="evenodd" clip-rule="evenodd" d="M17.5667 20.0238C17.5667 20.3097 17.7967 20.5407 18.0826 20.5407C18.3666 20.5407 18.5986 20.3097 18.5986 20.0238C18.5986 19.7388 18.3666 19.5088 18.0826 19.5088C17.7967 19.5088 17.5667 19.7388 17.5667 20.0238Z" fill="white"/>
</mask>
<g mask="url(#mask1_361_7075)">
<path fill-rule="evenodd" clip-rule="evenodd" d="M12.8323 25.2732H23.3315V14.7749H12.8323V25.2732Z" fill="#202020"/>
</g>
<path fill-rule="evenodd" clip-rule="evenodd" d="M18.0938 19.8291C17.9877 19.8291 17.9006 19.9162 17.9006 20.0232C17.9016 20.24 18.2897 20.2381 18.2888 20.0232C18.2888 19.9162 18.2007 19.8291 18.0938 19.8291ZM18.0886 21.2494C17.4126 21.2494 16.8635 20.6994 16.8635 20.0234C16.8635 19.3474 17.4126 18.7983 18.0886 18.7983C18.7655 18.7983 19.3156 19.3474 19.3156 20.0234C19.3156 20.6994 18.7655 21.2494 18.0886 21.2494Z" fill="#202020"/>
</svg>
