<svg width="72" height="73" viewBox="0 0 72 73" fill="none" xmlns="http://www.w3.org/2000/svg">
<g filter="url(#filter0_d_579_9816)">
<rect x="16" y="16.5" width="40" height="40" rx="20" fill="white" shape-rendering="crispEdges"/>
<path fill-rule="evenodd" clip-rule="evenodd" d="M26 36.5C26 30.9771 30.4771 26.5 36 26.5C41.5228 26.5 46 30.9771 46 36.5C46 42.0228 41.5228 46.5 36 46.5C30.4771 46.5 26 42.0228 26 36.5ZM33.7071 32.7929C33.3166 32.4024 32.6834 32.4024 32.2929 32.7929C31.9024 33.1834 31.9024 33.8166 32.2929 34.2071L34.5858 36.5L32.2929 38.7929C31.9024 39.1834 31.9024 39.8166 32.2929 40.2071C32.6834 40.5976 33.3166 40.5976 33.7071 40.2071L36 37.9142L38.2929 40.2071C38.6834 40.5976 39.3166 40.5976 39.7071 40.2071C40.0976 39.8166 40.0976 39.1834 39.7071 38.7929L37.4142 36.5L39.7071 34.2071C40.0976 33.8166 40.0976 33.1834 39.7071 32.7929C39.3166 32.4024 38.6834 32.4024 38.2929 32.7929L36 35.0858L33.7071 32.7929Z" fill="#AAAAAA"/>
<rect x="16.5" y="17" width="39" height="39" rx="19.5" stroke="#EBEBEB" shape-rendering="crispEdges"/>
</g>
<defs>
<filter id="filter0_d_579_9816" x="0" y="0.5" width="72" height="72" filterUnits="userSpaceOnUse" color-interpolation-filters="sRGB">
<feFlood flood-opacity="0" result="BackgroundImageFix"/>
<feColorMatrix in="SourceAlpha" type="matrix" values="0 0 0 0 0 0 0 0 0 0 0 0 0 0 0 0 0 0 127 0" result="hardAlpha"/>
<feOffset/>
<feGaussianBlur stdDeviation="8"/>
<feComposite in2="hardAlpha" operator="out"/>
<feColorMatrix type="matrix" values="0 0 0 0 0 0 0 0 0 0 0 0 0 0 0 0 0 0 0.08 0"/>
<feBlend mode="normal" in2="BackgroundImageFix" result="effect1_dropShadow_579_9816"/>
<feBlend mode="normal" in="SourceGraphic" in2="effect1_dropShadow_579_9816" result="shape"/>
</filter>
</defs>
</svg>
