<svg width="80" height="80" viewBox="0 0 80 80" fill="none" xmlns="http://www.w3.org/2000/svg">
<g filter="url(#filter0_d_528_8862)">
<rect x="23.5" y="16.5" width="31" height="31" rx="7.5" fill="#F2F2F2" stroke="#EBEBEB"/>
<path d="M44.8334 31.166H33.1667C32.9457 31.166 32.7337 31.2538 32.5775 31.4101C32.4212 31.5664 32.3334 31.7783 32.3334 31.9993C32.3334 32.2204 32.4212 32.4323 32.5775 32.5886C32.7337 32.7449 32.9457 32.8327 33.1667 32.8327H44.8334C45.0544 32.8327 45.2663 32.7449 45.4226 32.5886C45.5789 32.4323 45.6667 32.2204 45.6667 31.9993C45.6667 31.7783 45.5789 31.5664 45.4226 31.4101C45.2663 31.2538 45.0544 31.166 44.8334 31.166Z" fill="#202020"/>
</g>
<defs>
<filter id="filter0_d_528_8862" x="0" y="0" width="80" height="80" filterUnits="userSpaceOnUse" color-interpolation-filters="sRGB">
<feFlood flood-opacity="0" result="BackgroundImageFix"/>
<feColorMatrix in="SourceAlpha" type="matrix" values="0 0 0 0 0 0 0 0 0 0 0 0 0 0 0 0 0 0 127 0" result="hardAlpha"/>
<feOffset dx="1" dy="8"/>
<feGaussianBlur stdDeviation="12"/>
<feComposite in2="hardAlpha" operator="out"/>
<feColorMatrix type="matrix" values="0 0 0 0 0.921569 0 0 0 0 0.921569 0 0 0 0 0.921569 0 0 0 0.24 0"/>
<feBlend mode="normal" in2="BackgroundImageFix" result="effect1_dropShadow_528_8862"/>
<feBlend mode="normal" in="SourceGraphic" in2="effect1_dropShadow_528_8862" result="shape"/>
</filter>
</defs>
</svg>
