<svg width="20" height="20" viewBox="0 0 20 20" fill="none" xmlns="http://www.w3.org/2000/svg">
<path fill-rule="evenodd" clip-rule="evenodd" d="M10.2055 18.3326C9.07635 18.3326 7.97552 18.3201 6.88635 18.2976C5.49302 18.2701 4.52885 17.3668 4.37135 15.9401C4.10885 13.5735 3.65969 7.99514 3.65552 7.93931C3.62719 7.59514 3.88385 7.29348 4.22802 7.26598C4.56719 7.25681 4.87385 7.49514 4.90135 7.83848C4.90552 7.89514 5.35385 13.4543 5.61385 15.8026C5.70302 16.6135 6.14052 17.0318 6.91219 17.0476C8.99552 17.0918 11.1214 17.0943 13.413 17.0526C14.233 17.0368 14.6764 16.6268 14.768 15.7968C15.0264 13.4685 15.4764 7.89514 15.4814 7.83848C15.5089 7.49514 15.813 7.25514 16.1539 7.26598C16.498 7.29431 16.7547 7.59514 16.7272 7.93931C16.7222 7.99598 16.2705 13.5885 16.0105 15.9343C15.8489 17.3901 14.8872 18.276 13.4355 18.3026C12.3247 18.3218 11.253 18.3326 10.2055 18.3326Z" fill="#FA1363"/>
<path fill-rule="evenodd" clip-rule="evenodd" d="M17.2567 5.82422H3.125C2.78 5.82422 2.5 5.54422 2.5 5.19922C2.5 4.85422 2.78 4.57422 3.125 4.57422H17.2567C17.6017 4.57422 17.8817 4.85422 17.8817 5.19922C17.8817 5.54422 17.6017 5.82422 17.2567 5.82422Z" fill="#FA1363"/>
<path fill-rule="evenodd" clip-rule="evenodd" d="M14.5337 5.82352C13.5853 5.82352 12.762 5.14768 12.5753 4.21768L12.3728 3.20435C12.3303 3.05018 12.1545 2.91602 11.9545 2.91602H8.42701C8.22701 2.91602 8.05117 3.05018 8.00034 3.24268L7.80617 4.21768C7.62034 5.14768 6.79617 5.82352 5.84784 5.82352C5.50284 5.82352 5.22284 5.54352 5.22284 5.19852C5.22284 4.85352 5.50284 4.57352 5.84784 4.57352C6.20284 4.57352 6.51117 4.32018 6.58117 3.97185L6.78367 2.95852C6.98951 2.18185 7.66201 1.66602 8.42701 1.66602H11.9545C12.7195 1.66602 13.392 2.18185 13.5895 2.92102L13.8012 3.97185C13.8703 4.32018 14.1787 4.57352 14.5337 4.57352C14.8787 4.57352 15.1587 4.85352 15.1587 5.19852C15.1587 5.54352 14.8787 5.82352 14.5337 5.82352Z" fill="#FA1363"/>
</svg>
