<svg width="82" height="32" viewBox="0 0 82 32" fill="none" xmlns="http://www.w3.org/2000/svg">
<path d="M21.137 16.4411V0H25.147V10.1119C27.1186 7.76274 29.8321 7.08438 32.5054 7.08438C36.9833 7.08438 41.9557 10.1053 41.9557 16.6249C41.9557 17.4035 41.9056 18.152 41.7552 18.8571C42.5572 15.6725 46.0125 14.4962 51.4328 14.3659C53.137 14.3058 55.0919 14.3058 56.6458 14.3058V13.8546C56.6458 10.8972 54.7878 9.69758 51.533 9.69758C49.127 9.69758 47.3726 10.7001 47.1721 12.4043H42.9114C43.3659 8.09357 47.924 6.99081 51.8872 6.99081C55.4428 6.99081 58.5539 7.89307 59.9574 10.3993L58.5004 7.59232H63.2122L70.0794 21.3768L76.9465 7.58897H81.1003L68.6692 32H64.1713L67.7469 25.183L59.9607 10.5464C60.3952 11.3985 60.6291 12.401 60.6291 13.6541V21.8747C60.6291 23.0309 60.6625 24.1805 60.7627 25.2331H57.0401C56.9399 24.381 56.8864 23.5288 56.8864 22.6767C54.8713 25.1295 52.4754 25.8847 49.1337 25.8847C44.188 25.8847 41.5414 23.2782 41.5414 20.2206C41.5414 19.7193 41.5915 19.2715 41.665 18.8672C40.6625 23.0309 37.1203 25.8379 32.4186 25.8379C29.5113 25.8379 26.7577 24.7853 25.0668 22.7302C25.0668 23.5322 25.0167 24.381 24.9332 25.183H20.99C21.0568 23.8797 21.1236 22.3258 21.1236 21.0226V17.5138H4.98329C5.2005 21.1729 7.71679 23.3283 11.1754 23.3283C13.5748 23.3283 15.7034 22.3258 16.4152 20.2206H20.5589C19.7569 24.5313 15.1788 25.985 11.2356 25.985C4.07435 26.0551 0.89975 22.0886 0.89975 16.7753C0.89975 10.914 4.18129 7.05096 11.3124 7.05096C16.9532 7.05096 21.1036 10.0117 21.137 16.4277V16.4411ZM51.67 17.0526C48.0109 17.1663 45.7552 17.8312 45.7552 20.2272C45.7552 21.7811 46.9582 23.4687 50.1161 23.4687C54.3267 23.4687 56.5823 21.1629 56.5823 17.4069V16.9724C55.0785 16.9724 53.274 16.9925 51.6232 17.0459H51.6633L51.67 17.0526ZM31.4194 23.3183C35.1287 23.3183 37.6884 20.6249 37.6884 16.5681C37.6884 12.5113 35.122 9.81788 31.3626 9.81788C27.6533 9.81788 25.0468 12.5113 25.0468 16.5681C25.0468 20.6249 27.6032 23.3183 31.3125 23.3183H31.4127H31.4194ZM16.883 14.9173C16.736 11.1579 14.0292 9.75105 11.1186 9.75105C7.96408 9.75105 5.45781 11.335 5.05347 14.9173H16.883Z" fill="#505050"/>
</svg>
