<svg width="20" height="20" viewBox="0 0 20 20" fill="none" xmlns="http://www.w3.org/2000/svg">
<path d="M15 7.18077H13.6231L12.0077 11.4577C10.5329 11.1157 9.14315 10.4771 7.9231 9.58077C9.34792 8.02219 10.2968 6.08833 10.6577 4.00769H12.6616C12.8656 4.00769 13.0612 3.92665 13.2055 3.78239C13.3497 3.63813 13.4308 3.44247 13.4308 3.23846C13.4308 3.03445 13.3497 2.83879 13.2055 2.69453C13.0612 2.55027 12.8656 2.46923 12.6616 2.46923H7.56541V0.769231C7.56541 0.565218 7.48436 0.369561 7.3401 0.225302C7.19585 0.0810437 7.00019 0 6.79618 0C6.59216 0 6.39651 0.0810437 6.25225 0.225302C6.10799 0.369561 6.02695 0.565218 6.02695 0.769231V2.46923H0.926946C0.722933 2.46923 0.527276 2.55027 0.383017 2.69453C0.238759 2.83879 0.157715 3.03445 0.157715 3.23846C0.157715 3.44247 0.238759 3.63813 0.383017 3.78239C0.527276 3.92665 0.722933 4.00769 0.926946 4.00769H2.93464C3.29381 6.08811 4.24145 8.02209 5.66541 9.58077C4.35339 10.5416 2.85023 11.2092 1.25771 11.5385C1.0537 11.5604 0.866758 11.6625 0.738007 11.8222C0.609256 11.982 0.549245 12.1864 0.571176 12.3904C0.593108 12.5944 0.695185 12.7813 0.854951 12.9101C1.01472 13.0388 1.21909 13.0989 1.4231 13.0769C1.48013 13.0783 1.53707 13.0719 1.59233 13.0577C3.48947 12.6695 5.27074 11.8467 6.79618 10.6538C8.17241 11.7331 9.76286 12.5067 11.4616 12.9231L8.78079 20H10.7693L11.8077 17.0154H16.7846L17.8346 20H19.8423L15 7.18077ZM9.11541 4.00769C8.79579 5.71678 7.99523 7.29921 6.80772 8.56923C5.61932 7.29983 4.81862 5.71712 4.50002 4.00769H9.11541ZM12.4539 15.2192L14.3116 9.9L16.1539 15.2192H12.4539Z" fill="#1373FB"/>
</svg>
