<svg width="40" height="40" viewBox="0 0 40 40" fill="none" xmlns="http://www.w3.org/2000/svg">
<circle cx="20" cy="20" r="20" fill="white"/>
<path d="M25.625 12.5H21.875C21.1846 12.5 20.625 13.0596 20.625 13.75V17.5H25.625C25.7671 17.4969 25.902 17.563 25.9865 17.6774C26.071 17.7917 26.0948 17.94 26.05 18.075L25.125 20.825C25.0398 21.0774 24.8039 21.248 24.5375 21.25H20.625V30.625C20.625 30.9701 20.3451 31.25 20 31.25H16.875C16.5298 31.25 16.25 30.9701 16.25 30.625V21.25H14.375C14.0298 21.25 13.75 20.9701 13.75 20.625V18.125C13.75 17.7799 14.0298 17.5 14.375 17.5H16.25V13.75C16.25 10.9886 18.4886 8.75 21.25 8.75H25.625C25.9701 8.75 26.25 9.02983 26.25 9.375V11.875C26.25 12.2202 25.9701 12.5 25.625 12.5Z" fill="black"/>
</svg>
