<svg width="14" height="24" viewBox="0 0 14 24" fill="none" xmlns="http://www.w3.org/2000/svg">
<path d="M12.625 4.5H8.875C8.18463 4.5 7.625 5.05965 7.625 5.75V9.5H12.625C12.7671 9.49685 12.902 9.563 12.9865 9.67737C13.071 9.79175 13.0948 9.94 13.05 10.075L12.125 12.825C12.0398 13.0774 11.8039 13.248 11.5375 13.25H7.625V22.625C7.625 22.9701 7.34513 23.25 7 23.25H3.875C3.52982 23.25 3.25 22.9701 3.25 22.625V13.25H1.375C1.02983 13.25 0.75 12.9701 0.75 12.625V10.125C0.75 9.77987 1.02983 9.5 1.375 9.5H3.25V5.75C3.25 2.98857 5.48863 0.75 8.25 0.75H12.625C12.9701 0.75 13.25 1.02983 13.25 1.375V3.875C13.25 4.22018 12.9701 4.5 12.625 4.5Z" fill="white"/>
</svg>
