<svg width="100" height="30" viewBox="0 0 100 30" fill="none" xmlns="http://www.w3.org/2000/svg">
<path fill-rule="evenodd" clip-rule="evenodd" d="M11.2848 30V12.8571L26.1308 4.28571L18.7078 0L3.86182 8.57143V25.7143L11.2848 30ZM18.7078 17.1429L26.1308 12.8571V21.4286L18.7078 25.7143V17.1429Z" fill="black"/>
<path d="M45.8842 9.49723H39.4348V14.2198H45.6137V16.0506H39.4348V22.2295H37.5V7.66643H45.8842V9.49723Z" fill="black"/>
<path d="M56.8195 20.9189C55.7516 21.973 54.4547 22.5 52.9291 22.5C51.4034 22.5 50.1066 21.973 49.0387 20.9189C47.9846 19.8648 47.4575 18.568 47.4575 17.0284C47.4575 15.4889 47.9846 14.1921 49.0387 13.138C50.1066 12.0839 51.4034 11.5569 52.9291 11.5569C54.4547 11.5569 55.7516 12.0839 56.8195 13.138C57.8875 14.1921 58.4215 15.4889 58.4215 17.0284C58.4215 18.568 57.8875 19.8648 56.8195 20.9189ZM52.9291 20.7316C53.9693 20.7316 54.8431 20.3779 55.5504 19.6706C56.2578 18.9632 56.6115 18.0825 56.6115 17.0284C56.6115 15.9743 56.2578 15.0936 55.5504 14.3863C54.8431 13.6789 53.9693 13.3252 52.9291 13.3252C51.9027 13.3252 51.0359 13.6789 50.3285 14.3863C49.6212 15.0936 49.2675 15.9743 49.2675 17.0284C49.2675 18.0825 49.6212 18.9632 50.3285 19.6706C51.0359 20.3779 51.9027 20.7316 52.9291 20.7316Z" fill="black"/>
<path d="M67.7327 11.8273H69.5427V22.2295H67.7327V20.7316C66.9977 21.9105 65.8742 22.5 64.3624 22.5C63.1419 22.5 62.1641 22.1186 61.429 21.3558C60.6939 20.5791 60.3264 19.5319 60.3264 18.2143V11.8273H62.1363V18.1103C62.1363 18.9563 62.3652 19.6151 62.8229 20.0867C63.2806 20.5444 63.9117 20.7732 64.7161 20.7732C65.6176 20.7732 66.3458 20.4958 66.9006 19.9411C67.4554 19.3724 67.7327 18.5055 67.7327 17.3405V11.8273Z" fill="black"/>
<path d="M77.4786 11.5569C78.6992 11.5569 79.677 11.9452 80.4121 12.7219C81.1472 13.4847 81.5147 14.525 81.5147 15.8426V22.2295H79.7047V15.9466C79.7047 15.1006 79.4759 14.4487 79.0182 13.991C78.5605 13.5194 77.9294 13.2836 77.125 13.2836C76.2234 13.2836 75.4953 13.568 74.9405 14.1366C74.3857 14.6914 74.1083 15.5513 74.1083 16.7164V22.2295H72.2983V11.8273H74.1083V13.3252C74.8434 12.1463 75.9669 11.5569 77.4786 11.5569Z" fill="black"/>
<path d="M92.6545 7.66643H94.4645V22.2295H92.6545V20.4404C91.753 21.8135 90.4423 22.5 88.7225 22.5C87.2662 22.5 86.0248 21.973 84.9985 20.9189C83.9721 19.8509 83.4589 18.5541 83.4589 17.0284C83.4589 15.5028 83.9721 14.2129 84.9985 13.1588C86.0248 12.0908 87.2662 11.5569 88.7225 11.5569C90.4423 11.5569 91.753 12.2434 92.6545 13.6165V7.66643ZM88.9513 20.7524C90.0054 20.7524 90.8861 20.3988 91.5935 19.6914C92.3008 18.9702 92.6545 18.0825 92.6545 17.0284C92.6545 15.9743 92.3008 15.0936 91.5935 14.3863C90.8861 13.665 90.0054 13.3044 88.9513 13.3044C87.9111 13.3044 87.0373 13.665 86.33 14.3863C85.6226 15.0936 85.2689 15.9743 85.2689 17.0284C85.2689 18.0825 85.6226 18.9702 86.33 19.6914C87.0373 20.3988 87.9111 20.7524 88.9513 20.7524Z" fill="black"/>
<path d="M98.1222 9.93412C97.7754 9.93412 97.4842 9.81623 97.2484 9.58044C97.0126 9.34466 96.8947 9.06033 96.8947 8.72746C96.8947 8.39459 97.0126 8.11026 97.2484 7.87448C97.4842 7.62483 97.7754 7.5 98.1222 7.5C98.455 7.5 98.7394 7.62483 98.9752 7.87448C99.2109 8.11026 99.3288 8.39459 99.3288 8.72746C99.3288 9.06033 99.2109 9.34466 98.9752 9.58044C98.7394 9.81623 98.455 9.93412 98.1222 9.93412ZM97.2068 22.2295V11.8273H99.0168V22.2295H97.2068Z" fill="black"/>
</svg>
