<svg width="98" height="32" viewBox="0 0 98 32" fill="none" xmlns="http://www.w3.org/2000/svg">
<path d="M41.9961 16.8401C41.9961 21.444 38.3945 24.8365 33.9745 24.8365C29.5545 24.8365 25.9529 21.444 25.9529 16.8401C25.9529 12.2038 29.5545 8.84375 33.9745 8.84375C38.3945 8.84375 41.9961 12.2038 41.9961 16.8401ZM38.4846 16.8401C38.4846 13.9632 36.3972 11.9947 33.9745 11.9947C31.5518 11.9947 29.4644 13.9632 29.4644 16.8401C29.4644 19.6883 31.5518 21.6856 33.9745 21.6856C36.3972 21.6856 38.4846 19.6847 38.4846 16.8401Z" fill="#505050"/>
<path d="M59.3024 16.8401C59.3024 21.444 55.7008 24.8365 51.2808 24.8365C46.8608 24.8365 43.2592 21.444 43.2592 16.8401C43.2592 12.2074 46.8608 8.84375 51.2808 8.84375C55.7008 8.84375 59.3024 12.2038 59.3024 16.8401ZM55.7909 16.8401C55.7909 13.9632 53.7035 11.9947 51.2808 11.9947C48.8581 11.9947 46.7706 13.9632 46.7706 16.8401C46.7706 19.6883 48.8581 21.6856 51.2808 21.6856C53.7035 21.6856 55.7909 19.6847 55.7909 16.8401Z" fill="#505050"/>
<path d="M75.8839 9.32685V23.6829C75.8839 29.5882 72.4012 32.0001 68.284 32.0001C64.4084 32.0001 62.0758 29.408 61.1962 27.2881L64.2534 26.0154C64.7978 27.3169 66.1317 28.8527 68.2804 28.8527C70.9159 28.8527 72.549 27.2268 72.549 24.166V23.0159H72.4265C71.6405 23.9857 70.1263 24.8329 68.2155 24.8329C64.2174 24.8329 60.5544 21.3503 60.5544 16.869C60.5544 12.3552 64.2174 8.84375 68.2155 8.84375C70.1227 8.84375 71.6369 9.69098 72.4265 10.6319H72.549V9.33046H75.8839V9.32685ZM72.7978 16.869C72.7978 14.0533 70.9195 11.9947 68.5292 11.9947C66.1065 11.9947 64.0767 14.0533 64.0767 16.869C64.0767 19.6558 66.1065 21.6856 68.5292 21.6856C70.9195 21.6856 72.7978 19.6558 72.7978 16.869Z" fill="#505050"/>
<path d="M81.3825 0.912598V24.3466H77.9576V0.912598H81.3825Z" fill="#505050"/>
<path d="M94.728 19.4724L97.4536 21.2894C96.5739 22.5909 94.454 24.8334 90.7911 24.8334C86.2485 24.8334 82.856 21.3219 82.856 16.837C82.856 12.0817 86.2774 8.84058 90.3981 8.84058C94.5478 8.84058 96.5775 12.143 97.2409 13.9275L97.605 14.8361L86.9155 19.2633C87.7339 20.8676 89.0065 21.686 90.7911 21.686C92.5793 21.686 93.8195 20.8063 94.728 19.4724ZM86.3387 16.5954L93.4842 13.6283C93.0913 12.6297 91.9087 11.9339 90.5171 11.9339C88.7325 11.9339 86.2485 13.5093 86.3387 16.5954Z" fill="#505050"/>
<path d="M12.9881 14.7598V11.3673H24.4202C24.532 11.9585 24.5897 12.6579 24.5897 13.415C24.5897 15.9603 23.8939 19.1077 21.6514 21.3501C19.4703 23.6214 16.6834 24.8328 12.9917 24.8328C6.14896 24.8328 0.39502 19.2591 0.39502 12.4164C0.39502 5.57368 6.14896 0 12.9917 0C16.7772 0 19.4739 1.48535 21.5 3.42136L19.1061 5.81523C17.6532 4.45245 15.6848 3.39252 12.9881 3.39252C7.99123 3.39252 4.08316 7.41955 4.08316 12.4164C4.08316 17.4132 7.99123 21.4403 12.9881 21.4403C16.2292 21.4403 18.075 20.1388 19.2576 18.9563C20.2165 17.9973 20.8475 16.6273 21.0962 14.7562L12.9881 14.7598Z" fill="#505050"/>
</svg>
