<svg width="24" height="25" viewBox="0 0 24 25" fill="none" xmlns="http://www.w3.org/2000/svg">
<path d="M23.9996 12.7872C23.9996 11.9767 23.9196 11.1401 23.7862 10.3558H12.2363V14.9832H18.8515C18.5848 16.4734 17.7045 17.7805 16.3975 18.6171L20.3452 21.6236C22.6659 19.506 23.9996 16.4211 23.9996 12.7872Z" fill="#4280EF"/>
<path d="M12.2362 24.4996C15.5438 24.4996 18.3179 23.4277 20.3451 21.5977L16.3973 18.6173C15.3037 19.3493 13.89 19.7676 12.2362 19.7676C9.03529 19.7676 6.3412 17.65 5.35426 14.8265L1.2998 17.8853C3.38038 21.9375 7.59489 24.4996 12.2362 24.4996Z" fill="#34A353"/>
<path d="M5.35531 14.8017C4.8485 13.3116 4.8485 11.6907 5.35531 10.2005L1.30085 7.1156C-0.432965 10.5142 -0.432965 14.5142 1.30085 17.8866L5.35531 14.8017Z" fill="#F6B704"/>
<path d="M12.2362 5.2589C13.97 5.23276 15.6771 5.88634 16.9308 7.06279L20.4251 3.61187C18.2112 1.5727 15.277 0.474679 12.2362 0.500822C7.59489 0.500822 3.38038 3.06287 1.2998 7.11508L5.35426 10.2C6.3412 7.35036 9.03529 5.2589 12.2362 5.2589Z" fill="#E54335"/>
</svg>
