<svg width="34" height="32" viewBox="0 0 34 32" fill="none" xmlns="http://www.w3.org/2000/svg">
<path fill-rule="evenodd" clip-rule="evenodd" d="M23.7496 0.168235C24.8013 0.168235 25.8513 0.316568 26.8496 0.651568C33.0013 2.65157 35.218 9.40157 33.3663 15.3016C32.3163 18.3166 30.5996 21.0682 28.3513 23.3166C25.133 26.4332 21.6013 29.1999 17.7996 31.5832L17.383 31.8349L16.9496 31.5666C13.1346 29.1999 9.58295 26.4332 6.33462 23.2999C4.10129 21.0516 2.38295 18.3166 1.31629 15.3016C-0.567046 9.40157 1.64962 2.65157 7.86795 0.616568C8.35129 0.449902 8.84962 0.333235 9.34962 0.268235H9.54962C10.018 0.199902 10.483 0.168235 10.9496 0.168235H11.133C12.183 0.199902 13.1996 0.383235 14.1846 0.718235H14.283C14.3496 0.749901 14.3996 0.784901 14.433 0.816568C14.8013 0.934901 15.1496 1.06823 15.483 1.25157L16.1163 1.5349C16.2693 1.61652 16.4411 1.74123 16.5896 1.84902C16.6836 1.91731 16.7683 1.9788 16.833 2.01823C16.8602 2.03428 16.8878 2.05042 16.9157 2.06669C17.0586 2.15011 17.2074 2.237 17.333 2.33323C19.1846 0.918235 21.433 0.151568 23.7496 0.168235ZM28.183 12.1682C28.8663 12.1499 29.4496 11.6016 29.4996 10.8999V10.7016C29.5496 8.36657 28.1346 6.25157 25.983 5.4349C25.2996 5.1999 24.5496 5.56823 24.2996 6.26823C24.0663 6.96823 24.433 7.7349 25.133 7.98323C26.2013 8.38323 26.9163 9.4349 26.9163 10.5999V10.6516C26.8846 11.0332 26.9996 11.4016 27.233 11.6849C27.4663 11.9682 27.8163 12.1332 28.183 12.1682Z" fill="#FA1363"/>
</svg>
