<svg width="80" height="80" viewBox="0 0 80 80" fill="none" xmlns="http://www.w3.org/2000/svg">
<g filter="url(#filter0_d_528_8868)">
<rect x="23.5" y="16.5" width="31" height="31" rx="7.5" fill="#F2F2F2" stroke="#EBEBEB"/>
<path d="M44.8333 31.1673H39.8333V26.1673C39.8333 25.9463 39.7455 25.7343 39.5892 25.5781C39.433 25.4218 39.221 25.334 39 25.334C38.779 25.334 38.567 25.4218 38.4107 25.5781C38.2544 25.7343 38.1666 25.9463 38.1666 26.1673V31.1673H33.1666C32.9456 31.1673 32.7337 31.2551 32.5774 31.4114C32.4211 31.5677 32.3333 31.7796 32.3333 32.0007C32.3333 32.2217 32.4211 32.4336 32.5774 32.5899C32.7337 32.7462 32.9456 32.834 33.1666 32.834H38.1666V37.834C38.1666 38.055 38.2544 38.267 38.4107 38.4232C38.567 38.5795 38.779 38.6673 39 38.6673C39.221 38.6673 39.433 38.5795 39.5892 38.4232C39.7455 38.267 39.8333 38.055 39.8333 37.834V32.834H44.8333C45.0543 32.834 45.2663 32.7462 45.4226 32.5899C45.5788 32.4336 45.6666 32.2217 45.6666 32.0007C45.6666 31.7796 45.5788 31.5677 45.4226 31.4114C45.2663 31.2551 45.0543 31.1673 44.8333 31.1673Z" fill="#202020"/>
</g>
<defs>
<filter id="filter0_d_528_8868" x="0" y="0" width="80" height="80" filterUnits="userSpaceOnUse" color-interpolation-filters="sRGB">
<feFlood flood-opacity="0" result="BackgroundImageFix"/>
<feColorMatrix in="SourceAlpha" type="matrix" values="0 0 0 0 0 0 0 0 0 0 0 0 0 0 0 0 0 0 127 0" result="hardAlpha"/>
<feOffset dx="1" dy="8"/>
<feGaussianBlur stdDeviation="12"/>
<feComposite in2="hardAlpha" operator="out"/>
<feColorMatrix type="matrix" values="0 0 0 0 0.921569 0 0 0 0 0.921569 0 0 0 0 0.921569 0 0 0 0.24 0"/>
<feBlend mode="normal" in2="BackgroundImageFix" result="effect1_dropShadow_528_8868"/>
<feBlend mode="normal" in="SourceGraphic" in2="effect1_dropShadow_528_8868" result="shape"/>
</filter>
</defs>
</svg>
