<svg width="40" height="40" viewBox="0 0 40 40" fill="none" xmlns="http://www.w3.org/2000/svg">
<circle cx="20" cy="20" r="20" fill="white"/>
<path fill-rule="evenodd" clip-rule="evenodd" d="M25 8.75H15C11.5482 8.75 8.75 11.5482 8.75 15V25C8.75 28.4517 11.5482 31.25 15 31.25H25C28.4517 31.25 31.25 28.4517 31.25 25V15C31.25 11.5482 28.4517 8.75 25 8.75ZM29.0625 25C29.0556 27.2407 27.2407 29.0556 25 29.0625H15C12.7592 29.0556 10.9444 27.2407 10.9375 25V15C10.9444 12.7592 12.7592 10.9444 15 10.9375H25C27.2407 10.9444 29.0556 12.7592 29.0625 15V25ZM25.9375 15.3125C26.6279 15.3125 27.1875 14.7529 27.1875 14.0625C27.1875 13.3721 26.6279 12.8125 25.9375 12.8125C25.2471 12.8125 24.6875 13.3721 24.6875 14.0625C24.6875 14.7529 25.2471 15.3125 25.9375 15.3125ZM20 14.375C16.8934 14.375 14.375 16.8934 14.375 20C14.375 23.1066 16.8934 25.625 20 25.625C23.1066 25.625 25.625 23.1066 25.625 20C25.6284 18.5071 25.0368 17.0745 23.9811 16.0188C22.9255 14.9632 21.4929 14.3717 20 14.375ZM16.5625 20C16.5625 21.8985 18.1015 23.4375 20 23.4375C21.8985 23.4375 23.4375 21.8985 23.4375 20C23.4375 18.1015 21.8985 16.5625 20 16.5625C18.1015 16.5625 16.5625 18.1015 16.5625 20Z" fill="black"/>
</svg>
