<svg width="24" height="24" viewBox="0 0 24 24" fill="none" xmlns="http://www.w3.org/2000/svg">
<path fill-rule="evenodd" clip-rule="evenodd" d="M17 0.75H7C3.54822 0.75 0.75 3.54822 0.75 7V17C0.75 20.4517 3.54822 23.25 7 23.25H17C20.4517 23.25 23.25 20.4517 23.25 17V7C23.25 3.54822 20.4517 0.75 17 0.75ZM21.0625 17C21.0556 19.2407 19.2407 21.0556 17 21.0625H7C4.75919 21.0556 2.94436 19.2407 2.9375 17V7C2.94436 4.75919 4.75919 2.94436 7 2.9375H17C19.2407 2.94436 21.0556 4.75919 21.0625 7V17ZM17.9375 7.3125C18.6279 7.3125 19.1875 6.75285 19.1875 6.0625C19.1875 5.37215 18.6279 4.8125 17.9375 4.8125C17.2471 4.8125 16.6875 5.37215 16.6875 6.0625C16.6875 6.75285 17.2471 7.3125 17.9375 7.3125ZM12 6.375C8.8934 6.375 6.375 8.8934 6.375 12C6.375 15.1066 8.8934 17.625 12 17.625C15.1066 17.625 17.625 15.1066 17.625 12C17.6284 10.5071 17.0368 9.07446 15.9811 8.01885C14.9255 6.96324 13.4929 6.37168 12 6.375ZM8.5625 12C8.5625 13.8985 10.1015 15.4375 12 15.4375C13.8985 15.4375 15.4375 13.8985 15.4375 12C15.4375 10.1015 13.8985 8.5625 12 8.5625C10.1015 8.5625 8.5625 10.1015 8.5625 12Z" fill="white"/>
</svg>
