<svg width="60" height="32" viewBox="0 0 60 32" fill="none" xmlns="http://www.w3.org/2000/svg">
<path d="M23.7688 0C21.3744 0 19.3322 0.492966 17.3603 1.47889C12.2194 4.01412 9.26166 9.43669 9.26166 16.1973C9.26166 22.9579 12.149 28.2396 17.2899 30.634C18.6984 31.2678 20.1068 31.62 22.2195 31.9016C23.2759 31.9721 24.2618 32.0425 25.3181 31.9016C27.4308 31.62 28.8393 31.2678 30.2477 30.634C35.3886 28.1692 38.276 22.9579 38.276 16.1973C38.276 9.43669 35.3182 4.01412 30.1773 1.47889C28.135 0.492966 26.0928 0 23.7688 0ZM25.8111 4.78877C28.9097 5.63385 31.0928 8.38034 32.0083 12.4649C32.6421 15.2818 32.4309 18.5917 31.5858 21.1973C30.2477 25.2115 27.3604 27.5354 23.7688 27.465C20.2477 27.5354 17.2899 25.2115 15.9518 21.1973C15.1068 18.5917 14.8955 15.3522 15.5293 12.4649C16.3744 8.38034 18.6279 5.63385 21.7265 4.78877C23.0646 4.50708 24.473 4.50708 25.8111 4.78877Z" fill="#505050"/>
<path d="M3.27439 0C1.58424 0 0.175781 1.40846 0.175781 3.09861C0.175781 4.78876 1.58424 6.19723 3.27439 6.19723C4.96455 6.19723 6.37302 4.78876 6.37302 3.09861C6.37302 1.40846 4.96455 0 3.27439 0ZM0.387063 9.36627V31.9721H6.16174V9.36627H0.387063Z" fill="#505050"/>
<path d="M46.5846 31.9725C44.1198 31.5499 41.7254 31.1978 39.7536 30.071C39.7536 30.071 40.9508 25.4936 41.0212 25.4231C44.2607 26.5499 48.8382 28.0288 51.8664 26.6203C53.5565 25.7752 54.3312 24.2259 54.1199 22.4654C53.8382 20.4231 52.4298 19.2963 48.6269 17.8879C44.4015 16.2681 41.8663 14.3667 40.8804 11.8315C40.3874 10.5639 40.2466 9.01456 40.4578 7.6061C41.0916 3.73283 44.1198 1.05675 48.6973 0.211675C50.0354 0.00040536 52.9227 0.00040536 54.3312 0.211675C56.3734 0.56379 58.6974 1.33844 58.6974 1.62014C58.6974 1.76098 57.5002 5.91595 57.4298 6.05679C55.3875 5.28214 53.2044 4.71875 51.2326 4.64833C48.5565 4.57791 45.5987 6.19764 46.0917 9.01456C46.4438 10.7751 47.5706 11.6202 51.7255 13.3104C54.8241 14.578 56.2326 15.4231 57.5002 16.6907C59.2608 18.4512 59.8242 20.4935 59.8242 22.5358C59.8242 24.2259 59.6833 25.0006 59.0495 26.3386C57.5706 29.5077 54.6129 31.3387 50.1058 31.8316C49.2607 31.9725 47.2889 32.0429 46.5846 31.9725Z" fill="#505050"/>
</svg>
