<svg width="20" height="20" viewBox="0 0 20 20" fill="none" xmlns="http://www.w3.org/2000/svg">
<path d="M10 19.25C8.705 19.25 7.49479 19.0072 6.36937 18.5216C5.24396 18.0359 4.265 17.3769 3.4325 16.5444C2.6 15.7119 1.94479 14.7291 1.46688 13.5959C0.988958 12.4628 0.75 11.2487 0.75 9.95375C0.75 8.65875 0.988958 7.4524 1.46688 6.33469C1.94479 5.21698 2.6 4.24187 3.4325 3.40937C4.265 2.57688 5.24396 1.92552 6.36937 1.45531C7.49479 0.985104 8.705 0.75 10 0.75C11.295 0.75 12.5052 0.985104 13.6306 1.45531C14.756 1.92552 15.735 2.57688 16.5675 3.40937C17.4 4.24187 18.0552 5.21698 18.5331 6.33469C19.011 7.4524 19.25 8.65875 19.25 9.95375C19.25 11.2487 19.011 12.4628 18.5331 13.5959C18.0552 14.7291 17.4 15.7119 16.5675 16.5444C15.735 17.3769 14.756 18.0359 13.6306 18.5216C12.5052 19.0072 11.295 19.25 10 19.25ZM10 17.9087C10.5396 17.3538 10.9905 16.7178 11.3528 16.0009C11.7151 15.2841 12.0119 14.4323 12.2431 13.4456H7.78C7.99583 14.3706 8.2849 15.2031 8.64719 15.9431C9.00948 16.6831 9.46042 17.3383 10 17.9087ZM8.03438 17.6313C7.64896 17.0454 7.3175 16.4133 7.04 15.735C6.7625 15.0567 6.53125 14.2935 6.34625 13.4456H2.8775C3.46333 14.5402 4.14167 15.3997 4.9125 16.0241C5.68333 16.6484 6.72396 17.1842 8.03438 17.6313ZM11.9887 17.6081C13.0988 17.2535 14.097 16.7217 14.9834 16.0125C15.8699 15.3033 16.5829 14.4477 17.1225 13.4456H13.6769C13.4765 14.2781 13.2414 15.0335 12.9716 15.7119C12.7018 16.3902 12.3742 17.0223 11.9887 17.6081ZM2.415 12.0581H6.09188C6.04563 11.6419 6.01865 11.268 6.01094 10.9366C6.00323 10.6051 5.99938 10.2775 5.99938 9.95375C5.99938 9.56833 6.00708 9.22531 6.0225 8.92469C6.03792 8.62406 6.06875 8.28875 6.115 7.91875H2.415C2.30708 8.28875 2.23385 8.62021 2.19531 8.91313C2.15677 9.20604 2.1375 9.55292 2.1375 9.95375C2.1375 10.3546 2.15677 10.713 2.19531 11.0291C2.23385 11.3451 2.30708 11.6881 2.415 12.0581ZM7.52562 12.0581H12.4975C12.5592 11.5802 12.5977 11.1909 12.6131 10.8903C12.6285 10.5897 12.6363 10.2775 12.6363 9.95375C12.6363 9.64542 12.6285 9.34865 12.6131 9.06344C12.5977 8.77823 12.5592 8.39667 12.4975 7.91875H7.52562C7.46396 8.39667 7.42542 8.77823 7.41 9.06344C7.39458 9.34865 7.38688 9.64542 7.38688 9.95375C7.38688 10.2775 7.39458 10.5897 7.41 10.8903C7.42542 11.1909 7.46396 11.5802 7.52562 12.0581ZM13.885 12.0581H17.585C17.6929 11.6881 17.7661 11.3451 17.8047 11.0291C17.8432 10.713 17.8625 10.3546 17.8625 9.95375C17.8625 9.55292 17.8432 9.20604 17.8047 8.91313C17.7661 8.62021 17.6929 8.28875 17.585 7.91875H13.9081C13.9544 8.45833 13.9852 8.87073 14.0006 9.15594C14.016 9.44115 14.0238 9.70708 14.0238 9.95375C14.0238 10.2929 14.0122 10.6128 13.9891 10.9134C13.9659 11.2141 13.9313 11.5956 13.885 12.0581ZM13.6538 6.53125H17.1225C16.6138 5.4675 15.9161 4.58104 15.0297 3.87188C14.1432 3.16271 13.1219 2.66167 11.9656 2.36875C12.351 2.93917 12.6786 3.55583 12.9484 4.21875C13.2182 4.88167 13.4533 5.6525 13.6538 6.53125ZM7.78 6.53125H12.2662C12.0967 5.71417 11.8115 4.92406 11.4106 4.16094C11.0098 3.39781 10.5396 2.72333 10 2.1375C9.50667 2.55375 9.09042 3.10104 8.75125 3.77938C8.41208 4.45771 8.08833 5.375 7.78 6.53125ZM2.8775 6.53125H6.36937C6.53896 5.69875 6.75479 4.9549 7.01687 4.29969C7.27896 3.64448 7.61042 3.00854 8.01125 2.39188C6.855 2.68479 5.84521 3.17813 4.98187 3.87188C4.11854 4.56562 3.41708 5.45208 2.8775 6.53125Z" fill="#202020"/>
</svg>
