<svg width="24" height="24" viewBox="0 0 24 24" fill="none" xmlns="http://www.w3.org/2000/svg">
<path fill-rule="evenodd" clip-rule="evenodd" d="M3.25 0.75H20.75C22.1307 0.75 23.25 1.86929 23.25 3.25V20.75C23.25 22.1307 22.1307 23.25 20.75 23.25H3.25C1.86929 23.25 0.75 22.1307 0.75 20.75V3.25C0.75 1.86929 1.86929 0.75 3.25 0.75ZM7 19.5C7.34518 19.5 7.625 19.2201 7.625 18.875V10.125C7.625 9.77987 7.34518 9.5 7 9.5H5.125C4.77982 9.5 4.5 9.77987 4.5 10.125V18.875C4.5 19.2201 4.77982 19.5 5.125 19.5H7ZM6.0625 8.25C5.02696 8.25 4.1875 7.41054 4.1875 6.375C4.1875 5.33946 5.02696 4.5 6.0625 4.5C7.09804 4.5 7.9375 5.33946 7.9375 6.375C7.9375 7.41054 7.09804 8.25 6.0625 8.25ZM18.875 19.5C19.2201 19.5 19.5 19.2201 19.5 18.875V13.125C19.5406 11.1385 18.072 9.44315 16.1 9.2C14.7212 9.07406 13.3854 9.718 12.625 10.875V10.125C12.625 9.77987 12.3451 9.5 12 9.5H10.125C9.77987 9.5 9.5 9.77987 9.5 10.125V18.875C9.5 19.2201 9.77987 19.5 10.125 19.5H12C12.3451 19.5 12.625 19.2201 12.625 18.875V14.1875C12.625 13.152 13.4645 12.3125 14.5 12.3125C15.5355 12.3125 16.375 13.152 16.375 14.1875V18.875C16.375 19.2201 16.6549 19.5 17 19.5H18.875Z" fill="white"/>
</svg>
