<svg width="40" height="40" viewBox="0 0 40 40" fill="none" xmlns="http://www.w3.org/2000/svg">
<circle cx="20" cy="20" r="20" fill="white"/>
<path fill-rule="evenodd" clip-rule="evenodd" d="M11.25 8.75H28.75C30.1308 8.75 31.25 9.86929 31.25 11.25V28.75C31.25 30.1308 30.1308 31.25 28.75 31.25H11.25C9.86929 31.25 8.75 30.1308 8.75 28.75V11.25C8.75 9.86929 9.86929 8.75 11.25 8.75ZM15 27.5C15.3452 27.5 15.625 27.2201 15.625 26.875V18.125C15.625 17.7799 15.3452 17.5 15 17.5H13.125C12.7798 17.5 12.5 17.7799 12.5 18.125V26.875C12.5 27.2201 12.7798 27.5 13.125 27.5H15ZM14.0625 16.25C13.027 16.25 12.1875 15.4105 12.1875 14.375C12.1875 13.3395 13.027 12.5 14.0625 12.5C15.098 12.5 15.9375 13.3395 15.9375 14.375C15.9375 15.4105 15.098 16.25 14.0625 16.25ZM26.875 27.5C27.2201 27.5 27.5 27.2201 27.5 26.875V21.125C27.5406 19.1385 26.072 17.4432 24.1 17.2C22.7212 17.0741 21.3854 17.718 20.625 18.875V18.125C20.625 17.7799 20.3451 17.5 20 17.5H18.125C17.7799 17.5 17.5 17.7799 17.5 18.125V26.875C17.5 27.2201 17.7799 27.5 18.125 27.5H20C20.3451 27.5 20.625 27.2201 20.625 26.875V22.1875C20.625 21.152 21.4645 20.3125 22.5 20.3125C23.5355 20.3125 24.375 21.152 24.375 22.1875V26.875C24.375 27.2201 24.6549 27.5 25 27.5H26.875Z" fill="black"/>
</svg>
