<svg width="30" height="34" viewBox="0 0 30 34" fill="none" xmlns="http://www.w3.org/2000/svg">
<path fill-rule="evenodd" clip-rule="evenodd" d="M24.2045 9.32733V11.8829C27.0751 12.7789 29.1667 15.3775 29.1667 18.4813V26.7095C29.1667 30.5519 25.9811 33.6673 22.0537 33.6673H7.948C4.01893 33.6673 0.833336 30.5519 0.833336 26.7095V18.4813C0.833336 15.3775 2.92658 12.7789 5.79548 11.8829V9.32733C5.81242 4.35863 9.92778 0.333984 14.9746 0.333984C20.0892 0.333984 24.2045 4.35863 24.2045 9.32733ZM15.0085 3.23239C18.4464 3.23239 21.2408 5.96517 21.2408 9.32733V11.5235H8.75922V9.2942C8.77615 5.94861 11.5705 3.23239 15.0085 3.23239ZM16.4819 24.4255C16.4819 25.2371 15.8214 25.883 14.9915 25.883C14.1786 25.883 13.5181 25.2371 13.5181 24.4255V20.7487C13.5181 19.9537 14.1786 19.3078 14.9915 19.3078C15.8214 19.3078 16.4819 19.9537 16.4819 20.7487V24.4255Z" fill="#FA1363"/>
</svg>
