<svg width="34" height="30" viewBox="0 0 34 30" fill="none" xmlns="http://www.w3.org/2000/svg">
<path fill-rule="evenodd" clip-rule="evenodd" d="M25.5656 0C27.8006 0 29.9506 0.883333 31.5323 2.46833C33.1156 4.05 34.0006 6.18333 34.0006 8.41667V21.5833C34.0006 26.2333 30.2173 30 25.5656 30H9.10063C4.44896 30 0.667297 26.2333 0.667297 21.5833V8.41667C0.667297 3.76667 4.4323 0 9.10063 0H25.5656ZM28.2173 10.9L28.3506 10.7667C28.749 10.2833 28.749 9.58333 28.3323 9.1C28.1006 8.85167 27.7823 8.7 27.4506 8.66667C27.1006 8.64833 26.7673 8.76667 26.5156 9L19.0006 15C18.034 15.8017 16.649 15.8017 15.6673 15L8.1673 9C7.64896 8.61667 6.9323 8.66667 6.50063 9.11667C6.05063 9.56667 6.00063 10.2833 6.3823 10.7833L6.60063 11L14.184 16.9167C15.1173 17.65 16.249 18.05 17.434 18.05C18.6156 18.05 19.7673 17.65 20.699 16.9167L28.2173 10.9Z" fill="#FA1363"/>
</svg>
