<svg width="20" height="20" viewBox="0 0 20 20" fill="none" xmlns="http://www.w3.org/2000/svg">
<path d="M15.8333 9.16732H10.8333V4.16732C10.8333 3.9463 10.7455 3.73434 10.5892 3.57806C10.433 3.42178 10.221 3.33398 9.99998 3.33398C9.77897 3.33398 9.567 3.42178 9.41072 3.57806C9.25444 3.73434 9.16665 3.9463 9.16665 4.16732V9.16732H4.16665C3.94563 9.16732 3.73367 9.25511 3.57739 9.41139C3.42111 9.56768 3.33331 9.77964 3.33331 10.0007C3.33331 10.2217 3.42111 10.4336 3.57739 10.5899C3.73367 10.7462 3.94563 10.834 4.16665 10.834H9.16665V15.834C9.16665 16.055 9.25444 16.267 9.41072 16.4232C9.567 16.5795 9.77897 16.6673 9.99998 16.6673C10.221 16.6673 10.433 16.5795 10.5892 16.4232C10.7455 16.267 10.8333 16.055 10.8333 15.834V10.834H15.8333C16.0543 10.834 16.2663 10.7462 16.4226 10.5899C16.5788 10.4336 16.6666 10.2217 16.6666 10.0007C16.6666 9.77964 16.5788 9.56768 16.4226 9.41139C16.2663 9.25511 16.0543 9.16732 15.8333 9.16732Z" fill="#202020"/>
</svg>
