<svg width="20" height="21" viewBox="0 0 20 21" fill="none" xmlns="http://www.w3.org/2000/svg">
<path d="M15.8334 9.66634H10.8334V4.66634C10.8334 4.44533 10.7456 4.23337 10.5893 4.07709C10.433 3.92081 10.2211 3.83301 10 3.83301C9.77903 3.83301 9.56706 3.92081 9.41078 4.07709C9.2545 4.23337 9.16671 4.44533 9.16671 4.66634V9.66634H4.16671C3.94569 9.66634 3.73373 9.75414 3.57745 9.91042C3.42117 10.0667 3.33337 10.2787 3.33337 10.4997C3.33337 10.7207 3.42117 10.9326 3.57745 11.0889C3.73373 11.2452 3.94569 11.333 4.16671 11.333H9.16671V16.333C9.16671 16.554 9.2545 16.766 9.41078 16.9223C9.56706 17.0785 9.77903 17.1663 10 17.1663C10.2211 17.1663 10.433 17.0785 10.5893 16.9223C10.7456 16.766 10.8334 16.554 10.8334 16.333V11.333H15.8334C16.0544 11.333 16.2663 11.2452 16.4226 11.0889C16.5789 10.9326 16.6667 10.7207 16.6667 10.4997C16.6667 10.2787 16.5789 10.0667 16.4226 9.91042C16.2663 9.75414 16.0544 9.66634 15.8334 9.66634Z" fill="black"/>
</svg>
