<svg width="41" height="40" viewBox="0 0 41 40" fill="none" xmlns="http://www.w3.org/2000/svg">
<path fill-rule="evenodd" clip-rule="evenodd" d="M12.8837 3.33398H28.4337C34.1003 3.33398 37.3337 6.53398 37.3337 12.2173V27.784C37.3337 33.434 34.117 36.6673 28.4503 36.6673H12.8837C7.20034 36.6673 4.00034 33.434 4.00034 27.784V12.2173C4.00034 6.53398 7.20034 3.33398 12.8837 3.33398ZM22.0337 21.384H26.767C27.5337 21.3673 28.1503 20.7507 28.1503 19.984C28.1503 19.2173 27.5337 18.6007 26.767 18.6007H22.0337V13.9007C22.0337 13.134 21.417 12.5173 20.6503 12.5173C19.8837 12.5173 19.267 13.134 19.267 13.9007V18.6007H14.5503C14.1837 18.6007 13.8337 18.7507 13.567 19.0007C13.317 19.2673 13.167 19.6157 13.167 19.984C13.167 20.7507 13.7837 21.3673 14.5503 21.384H19.267V26.1007C19.267 26.8673 19.8837 27.484 20.6503 27.484C21.417 27.484 22.0337 26.8673 22.0337 26.1007V21.384Z" fill="#FA1363"/>
</svg>
