<svg width="16" height="20" viewBox="0 0 16 20" fill="none" xmlns="http://www.w3.org/2000/svg">
<path fill-rule="evenodd" clip-rule="evenodd" d="M3.08896 12.9653C4.42031 12.5189 6.18402 12.3843 7.99927 12.3843C9.82548 12.3843 11.5898 12.5241 12.9193 12.9763C13.5878 13.2037 14.1973 13.5266 14.6457 13.9966C15.1103 14.4835 15.3727 15.0992 15.3727 15.8269C15.3727 16.5561 15.1079 17.1715 14.6407 17.6566C14.19 18.1244 13.5783 18.4442 12.9092 18.6687C11.5781 19.1152 9.81458 19.25 7.99927 19.25C6.17313 19.25 4.40864 19.1104 3.07887 18.6583C2.41032 18.4311 1.80067 18.1082 1.35209 17.6381C0.887422 17.1511 0.625 16.5353 0.625 15.8074C0.625 15.078 0.889786 14.4625 1.35714 13.9773C1.80792 13.5094 2.41975 13.1896 3.08896 12.9653ZM2.36291 14.9462C2.14116 15.1764 2.02156 15.4466 2.02156 15.8074C2.02156 16.1697 2.14108 16.442 2.36247 16.674C2.59996 16.9229 2.98048 17.1498 3.52837 17.3361C4.63149 17.7111 6.205 17.8535 7.99927 17.8535C9.78485 17.8535 11.3589 17.7157 12.4651 17.3446C13.0147 17.1603 13.3966 16.9351 13.6348 16.6877C13.8566 16.4575 13.9761 16.1874 13.9761 15.8269C13.9761 15.4649 13.8566 15.1926 13.6353 14.9606C13.3979 14.7118 13.0174 14.4848 12.4696 14.2985C11.3667 13.9234 9.79347 13.7808 7.99927 13.7808C6.21361 13.7808 4.63933 13.9184 3.53291 14.2894C2.98323 14.4737 2.60123 14.6988 2.36291 14.9462Z" fill="#202020"/>
<path fill-rule="evenodd" clip-rule="evenodd" d="M3.05471 5.69224C3.05532 2.96223 5.26918 0.75 7.99897 0.75C10.7293 0.75 12.9423 2.96302 12.9423 5.69337C12.9423 8.42354 10.7295 10.6376 7.99897 10.6376H7.96882L7.96657 10.6376C5.2453 10.6284 3.0461 8.41393 3.05471 5.69224ZM3.05471 5.69224C3.05471 5.69187 3.05472 5.69149 3.05472 5.69112L3.71974 5.69337H3.05471C3.05471 5.693 3.05471 5.69262 3.05471 5.69224ZM7.99897 2.08005C6.00301 2.08005 4.38477 3.69777 4.38477 5.69337V5.69562H4.38476C4.37803 7.68325 5.98378 9.30029 7.97007 9.30757H7.99897C9.99457 9.30757 11.6123 7.68933 11.6123 5.69337C11.6123 3.69759 9.99475 2.08005 7.99897 2.08005Z" fill="#202020"/>
</svg>
