<svg width="34" height="34" viewBox="0 0 34 34" fill="none" xmlns="http://www.w3.org/2000/svg">
<path fill-rule="evenodd" clip-rule="evenodd" d="M16.6667 33.6673C7.46667 33.6673 0 26.2173 0 17.0007C0 7.80065 7.46667 0.333984 16.6667 0.333984C25.8833 0.333984 33.3333 7.80065 33.3333 17.0007C33.3333 26.2173 25.8833 33.6673 16.6667 33.6673ZM21.9833 23.184C22.1833 23.3006 22.4 23.3673 22.6333 23.3673C23.05 23.3673 23.4667 23.1507 23.7 22.7507C24.05 22.1673 23.8667 21.4007 23.2667 21.034L17.3333 17.5007V9.80065C17.3333 9.10065 16.7667 8.55065 16.0833 8.55065C15.4 8.55065 14.8333 9.10065 14.8333 9.80065V18.2173C14.8333 18.6507 15.0667 19.0506 15.45 19.284L21.9833 23.184Z" fill="#FA1363"/>
</svg>
