<svg width="96" height="32" viewBox="0 0 96 32" fill="none" xmlns="http://www.w3.org/2000/svg">
<path d="M13.5156 5.89465H39.579V0H58.1054V5.89465H64V8.42103L66.5264 5.89465H74.0817L78.3337 0H87.5792V5.89465H91.7897L96.0002 10.1052V24.421L88.4212 32H67.3685L64 28.6315V32H53.0526L49.6841 28.6315V32H26.9472L23.5788 28.6315V32H11.7893L-0.000183105 20.2105V0H9.2631L13.5156 5.89465ZM14.3157 22.7376V16H8.42085V14.3166H14.3157V7.57897H8.42085V1.68413H1.68395V19.3692L5.0524 22.7376H14.3157ZM64 19.3692L67.3685 22.7376H77.4738V16H70.7369V14.3166H77.4738V7.57897H67.3685L64 10.9474V19.3692ZM62.3159 22.7376V16H56.421V14.3166H62.3159V7.57897H56.421V1.68413H49.6841V19.3692L53.0526 22.7376H62.3159ZM85.8948 22.7376V14.3166H87.5792V22.7376H94.3161V10.9474L90.9476 7.57897H85.8948V1.68413H79.1579V22.7376H85.8948ZM39.579 22.7376V7.57897H32.8421V16H31.1578V7.57897H24.421V16H22.7367V7.57897H15.9998V19.3692L19.3683 22.7376H39.579ZM48 22.7369V7.57897H41.2631V22.7369H48ZM48 5.89465V1.68413H41.2631V5.89465H48Z" fill="#505050"/>
</svg>
