<svg width="24" height="20" viewBox="0 0 24 20" fill="none" xmlns="http://www.w3.org/2000/svg">
<path d="M23.2161 3.39675C22.6356 4.17115 21.9338 4.84667 21.138 5.3972C21.138 5.59949 21.138 5.80178 21.138 6.01532C21.1443 9.68888 19.677 13.2114 17.0648 15.7931C14.4526 18.3749 10.9141 19.7999 7.24266 19.7486C5.12008 19.7558 3.02468 19.2711 1.12062 18.3326C1.01794 18.2878 0.951731 18.1863 0.952119 18.0741V17.9505C0.952119 17.7891 1.08288 17.6584 1.24418 17.6584C3.33062 17.5895 5.34262 16.8661 6.99552 15.5905C5.10701 15.5524 3.40783 14.4336 2.62584 12.7134C2.58636 12.6195 2.59864 12.5116 2.65831 12.429C2.71796 12.3464 2.81634 12.3009 2.91791 12.3089C3.49187 12.3665 4.07157 12.3131 4.62534 12.1515C2.54058 11.7188 0.974107 9.988 0.749919 7.86963C0.741957 7.768 0.787494 7.66963 0.870094 7.60988C0.952681 7.55025 1.06039 7.53788 1.15432 7.5775C1.71377 7.82438 2.31771 7.95438 2.92914 7.9595C1.10239 6.76058 0.313356 4.48006 1.00828 2.40778C1.08002 2.20641 1.25236 2.05765 1.46197 2.01618C1.67157 1.97469 1.88754 2.0466 2.03049 2.20549C4.49558 4.82906 7.88264 6.39245 11.4775 6.56599C11.3855 6.19857 11.3402 5.82095 11.3427 5.44215C11.3763 3.4559 12.6053 1.68651 14.4543 0.96234C16.3032 0.238177 18.4062 0.70254 19.7788 2.13805C20.7143 1.95982 21.6188 1.64557 22.4635 1.20526C22.5253 1.16664 22.6038 1.16664 22.6657 1.20526C22.7043 1.26717 22.7043 1.34565 22.6657 1.40755C22.2566 2.3444 21.5655 3.13015 20.6887 3.65524C21.4565 3.5662 22.2107 3.38509 22.9353 3.1158C22.9963 3.07428 23.0765 3.07428 23.1375 3.1158C23.1886 3.13918 23.2268 3.18389 23.242 3.23803C23.2571 3.29216 23.2476 3.35023 23.2161 3.39675Z" fill="white"/>
</svg>
