<svg width="40" height="40" viewBox="0 0 40 40" fill="none" xmlns="http://www.w3.org/2000/svg">
<circle cx="20" cy="20" r="20" fill="white"/>
<path d="M31.2161 13.3968C30.6356 14.1712 29.9338 14.8467 29.138 15.3972C29.138 15.5995 29.138 15.8018 29.138 16.0153C29.1443 19.6889 27.677 23.2114 25.0648 25.7931C22.4526 28.3749 18.9141 29.7999 15.2427 29.7486C13.1201 29.7558 11.0247 29.2711 9.12062 28.3326C9.01794 28.2878 8.95173 28.1863 8.95212 28.0741V27.9505C8.95212 27.7891 9.08288 27.6584 9.24418 27.6584C11.3306 27.5895 13.3426 26.8661 14.9955 25.5905C13.107 25.5524 11.4078 24.4336 10.6258 22.7134C10.5864 22.6195 10.5986 22.5116 10.6583 22.429C10.718 22.3464 10.8163 22.3009 10.9179 22.3089C11.4919 22.3665 12.0716 22.3131 12.6253 22.1515C10.5406 21.7188 8.97411 19.988 8.74992 17.8696C8.74196 17.768 8.78749 17.6696 8.87009 17.6099C8.95268 17.5503 9.06039 17.5379 9.15432 17.5775C9.71377 17.8244 10.3177 17.9544 10.9291 17.9595C9.10239 16.7606 8.31336 14.4801 9.00828 12.4078C9.08002 12.2064 9.25236 12.0577 9.46197 12.0162C9.67157 11.9747 9.88754 12.0466 10.0305 12.2055C12.4956 14.8291 15.8826 16.3925 19.4775 16.566C19.3855 16.1986 19.3402 15.821 19.3427 15.4422C19.3763 13.4559 20.6053 11.6865 22.4543 10.9623C24.3032 10.2382 26.4062 10.7025 27.7788 12.1381C28.7143 11.9598 29.6188 11.6456 30.4635 11.2053C30.5253 11.1666 30.6038 11.1666 30.6657 11.2053C30.7043 11.2672 30.7043 11.3457 30.6657 11.4076C30.2566 12.3444 29.5655 13.1302 28.6887 13.6552C29.4565 13.5662 30.2107 13.3851 30.9353 13.1158C30.9963 13.0743 31.0765 13.0743 31.1375 13.1158C31.1886 13.1392 31.2268 13.1839 31.242 13.238C31.2571 13.2922 31.2476 13.3502 31.2161 13.3968Z" fill="black"/>
</svg>
