<svg width="24" height="24" viewBox="0 0 24 24" fill="none" xmlns="http://www.w3.org/2000/svg">
<path fill-rule="evenodd" clip-rule="evenodd" d="M11.7769 13.4645C11.1079 13.4645 10.4409 13.2435 9.88286 12.8015L5.39786 9.1855C5.07486 8.9255 5.02486 8.4525 5.28386 8.1305C5.54486 7.8095 6.01686 7.7585 6.33886 8.0175L10.8199 11.6295C11.3829 12.0755 12.1759 12.0755 12.7429 11.6255L17.1789 8.0195C17.5009 7.7565 17.9729 7.8065 18.2349 8.1285C18.4959 8.4495 18.4469 8.9215 18.1259 9.1835L13.6819 12.7955C13.1199 13.2415 12.4479 13.4645 11.7769 13.4645Z" fill="#505050"/>
<mask id="mask0_144_3541" style="mask-type:luminance" maskUnits="userSpaceOnUse" x="1" y="2" width="22" height="20">
<path fill-rule="evenodd" clip-rule="evenodd" d="M1 2H22.4999V21.5H1V2Z" fill="white"/>
</mask>
<g mask="url(#mask0_144_3541)">
<path fill-rule="evenodd" clip-rule="evenodd" d="M6.83888 20H16.6589C16.6609 19.998 16.6689 20 16.6749 20C17.8159 20 18.8279 19.592 19.6039 18.817C20.5049 17.92 20.9999 16.631 20.9999 15.188V8.32C20.9999 5.527 19.1739 3.5 16.6589 3.5H6.84088C4.32588 3.5 2.49988 5.527 2.49988 8.32V15.188C2.49988 16.631 2.99588 17.92 3.89588 18.817C4.67188 19.592 5.68488 20 6.82488 20H6.83888ZM6.82188 21.5C5.27888 21.5 3.90088 20.94 2.83688 19.88C1.65188 18.698 0.999878 17.032 0.999878 15.188V8.32C0.999878 4.717 3.51088 2 6.84088 2H16.6589C19.9889 2 22.4999 4.717 22.4999 8.32V15.188C22.4999 17.032 21.8479 18.698 20.6629 19.88C19.5999 20.939 18.2209 21.5 16.6749 21.5H16.6589H6.84088H6.82188Z" fill="#505050"/>
</g>
</svg>
